<svg xmlns="http://www.w3.org/2000/svg" xmlns:xlink="http://www.w3.org/1999/xlink" version="1.1" id="Layer_1" x="0px" y="0px" width="100%" viewBox="0 0 1269 1269" enable-background="new 0 0 1269 1269" xml:space="preserve">
<path fill="#FEA625" opacity="1.000000" stroke="none" d=" M0.999999,645.000000   C1.000000,638.978821 1.000000,632.957703 1.395165,626.725647   C2.192544,625.499084 2.884930,624.502502 2.953537,623.464783   C4.016391,607.387817 4.652037,591.274109 6.107244,575.234314   C7.297997,562.109497 9.443409,549.071228 11.623485,535.995972   C428.332367,535.996582 844.583374,535.995850 1260.907349,536.413086   C1261.322388,539.229309 1261.734497,541.620056 1261.995605,544.027161   C1264.015747,562.658752 1265.985962,581.295776 1268.080566,599.918945   C1268.165527,600.674988 1269.335571,601.309082 1270.000000,602.000000   C1270.000000,625.354248 1270.000000,648.708435 1269.606689,672.272339   C1268.806641,676.661987 1268.494629,680.853821 1267.976440,685.020020   C1266.022217,700.731323 1264.284546,716.477173 1261.919189,732.127502   C1259.857300,745.768921 1257.569458,759.416199 1254.483887,772.854797   C1247.240967,804.400696 1238.193115,835.441040 1225.958130,865.457703   C1220.834351,878.028015 1215.226562,890.400940 1209.381226,902.883362   C1207.590698,902.913391 1206.257690,902.932739 1204.924805,902.932739   C825.669495,902.934082 446.414185,902.934143 67.158897,902.931091   C65.492966,902.931091 63.827034,902.887207 61.969193,902.555908   C58.571819,895.013916 55.315556,887.801880 52.170029,880.541809   C40.838894,854.388916 31.517366,827.489807 24.181187,799.992493   C16.268463,770.334229 9.741967,740.314636 7.047627,709.646912   C5.393564,690.819946 4.315361,671.942139 3.018954,653.084351   C2.870847,650.929871 3.123706,648.741943 2.885177,646.603577   C2.818564,646.006348 1.658475,645.531189 0.999999,645.000000  z"/>
<path fill="#FECB80" opacity="1.000000" stroke="none" d=" M625.000000,1.000004   C632.020935,1.000000 639.041931,1.000000 646.205444,1.365872   C647.364990,2.153510 648.367432,2.900177 649.401123,2.946345   C658.819885,3.367025 668.257263,3.456462 677.663391,4.051373   C690.277100,4.849149 702.940979,5.467569 715.449768,7.153694   C730.880493,9.233682 746.203308,12.174157 761.520081,15.025627   C786.791870,19.730352 811.432739,26.750847 835.836365,34.850651   C870.104797,46.224716 903.265442,60.061501 934.871887,77.496330   C948.884949,85.226219 962.836426,93.153694 976.246460,101.867691   C991.189087,111.577553 1005.880371,121.773041 1019.957581,132.690063   C1036.365234,145.414246 1052.604614,158.486298 1067.804932,172.604691   C1089.001953,192.292953 1109.050903,213.200211 1126.601074,235.953186   C1124.796875,235.983322 1123.463989,235.998871 1122.131104,235.998871   C798.062012,235.999939 473.992889,236.000000 149.923782,235.997131   C148.257996,235.997116 146.592209,235.955139 145.051605,235.617752   C153.882370,225.270187 162.011185,214.656021 171.416733,205.329376   C189.507248,187.390762 207.860306,169.657700 226.983017,152.838257   C241.758759,139.842209 257.360229,127.631485 273.506714,116.380653   C303.383789,95.562401 334.762268,77.217339 367.909210,61.900883   C392.688538,50.450909 417.940277,40.302505 443.950500,32.140461   C460.558624,26.928801 477.284271,21.780912 494.299072,18.253155   C516.533447,13.643205 539.038086,10.156542 561.554993,7.149824   C577.958740,4.959420 594.566467,4.271582 611.092773,3.041840   C614.902832,2.758324 618.758301,3.114461 622.578125,2.906392   C623.417542,2.860668 624.194336,1.665728 625.000000,1.000004  z"/>
<path fill="#FECB80" opacity="1.000000" stroke="none" d=" M1024.072876,1136.067261   C1007.671204,1147.590454 991.520569,1159.494751 974.785522,1170.511475   C962.256104,1178.759644 949.056946,1186.009888 936.008423,1193.445557   C912.676636,1206.741333 888.123474,1217.489014 863.177917,1227.299072   C837.363037,1237.451050 810.940369,1245.831299 783.867615,1251.927246   C765.882446,1255.976929 747.813110,1259.765869 729.638611,1262.822144   C716.932800,1264.958618 703.980835,1265.617188 691.147888,1267.018677   C685.203430,1267.667847 679.280518,1268.514771 673.673889,1269.635986   C648.979126,1270.000000 623.958191,1270.000000 598.468628,1270.000000   C597.028015,1269.333618 596.099976,1268.166382 595.077454,1268.076904   C582.324158,1266.958618 569.459473,1266.669678 556.816406,1264.836792   C538.046631,1262.115479 519.217102,1259.217163 500.803711,1254.774902   C477.159454,1249.070557 453.610535,1242.629272 430.566406,1234.881836   C410.445190,1228.117188 390.950989,1219.404175 371.409729,1211.016357   C336.035034,1195.832031 303.566132,1175.468384 271.813995,1153.927612   C263.759735,1148.463623 256.071259,1142.460449 248.542816,1136.365234   C249.870483,1136.016968 250.870010,1136.001099 251.869553,1136.001099   C507.771606,1136.000122 763.673706,1135.999878 1019.575745,1136.002808   C1021.074768,1136.002808 1022.573853,1136.044922 1024.072876,1136.067261  z"/>
<path fill="#FEDFB1" opacity="1.000000" stroke="none" d=" M1209.381226,902.883362   C1198.694946,926.608093 1186.932739,950.042358 1172.447876,971.951660   C1160.434204,990.122742 1147.927368,1007.968872 1135.543823,1025.893066   C1133.149414,1029.358887 1130.314575,1032.520508 1126.897461,1035.927246   C1125.278931,1036.021606 1124.446045,1036.001831 1123.613037,1036.001831   C798.891052,1036.000366 474.169037,1036.000000 149.447037,1036.004883   C147.949020,1036.004883 146.451004,1036.079590 144.952972,1036.119507   C133.061279,1020.005798 120.631218,1004.255249 109.441734,987.667847   C99.829849,973.419189 91.337135,958.382080 82.904305,943.381653   C75.579445,930.352112 69.031395,916.885864 62.150574,903.238220   C63.827034,902.887207 65.492966,902.931091 67.158897,902.931091   C446.414185,902.934143 825.669495,902.934082 1204.924805,902.932739   C1206.257690,902.932739 1207.590698,902.913391 1209.381226,902.883362  z"/>
<path fill="#FEDFB1" opacity="1.000000" stroke="none" d=" M1236.833862,436.035553   C1243.227417,460.553497 1249.755005,485.037659 1255.940552,509.607971   C1258.058228,518.019470 1259.319092,526.646667 1260.902832,535.585205   C844.583374,535.995850 428.332367,535.996582 11.623487,535.995972   C14.110361,520.665405 16.468090,505.193451 20.152304,490.044098   C24.505335,472.144562 30.004482,454.523712 35.544060,436.394897   C435.165833,436.005249 834.250305,436.002747 1233.334839,436.001801   C1234.501221,436.001801 1235.667480,436.023804 1236.833862,436.035553  z"/>
<path fill="#FEB64C" opacity="1.000000" stroke="none" d=" M1236.794189,435.660645   C1235.667480,436.023804 1234.501221,436.001801 1233.334839,436.001801   C834.250305,436.002747 435.165833,436.005249 35.623337,436.011108   C46.364212,401.977448 60.493298,369.150757 77.276283,337.544281   C92.341881,309.172119 109.290985,281.906586 129.021851,256.459747   C134.199310,249.782410 139.208832,242.974869 144.610962,236.079926   C146.592209,235.955139 148.257996,235.997116 149.923782,235.997131   C473.992889,236.000000 798.062012,235.999939 1122.131104,235.998871   C1123.463989,235.998871 1124.796875,235.983322 1126.601074,235.953186   C1140.210693,253.945190 1154.041626,271.503357 1166.281250,290.108307   C1177.273193,306.816559 1186.701172,324.571594 1196.488770,342.049927   C1211.943848,369.648834 1223.914429,398.799713 1234.272461,428.639893   C1235.047729,430.873230 1235.924683,433.071320 1236.794189,435.660645  z"/>
<path fill="#FEB64C" opacity="1.000000" stroke="none" d=" M145.084534,1036.424805   C146.451004,1036.079590 147.949020,1036.004883 149.447037,1036.004883   C474.169037,1036.000000 798.891052,1036.000366 1123.613037,1036.001831   C1124.446045,1036.001831 1125.278931,1036.021606 1126.579590,1036.075806   C1117.941162,1046.666504 1109.101562,1057.459839 1099.646362,1067.683838   C1091.830322,1076.135498 1083.419312,1084.054810 1075.031006,1091.954468   C1065.706909,1100.735229 1056.230347,1109.363647 1046.592529,1117.798340   C1039.488281,1124.015747 1032.018677,1129.815430 1024.392334,1135.934326   C1022.573853,1136.044922 1021.074768,1136.002808 1019.575745,1136.002808   C763.673706,1135.999878 507.771606,1136.000122 251.869553,1136.001099   C250.870010,1136.001099 249.870483,1136.016968 248.399658,1136.047119   C232.529114,1122.789917 216.688034,1109.982788 201.858093,1096.095947   C187.777588,1082.910889 174.678040,1068.670166 161.304276,1054.742554   C155.732010,1048.939575 150.566544,1042.745972 145.084534,1036.424805  z"/>
</svg>