<svg xmlns="http://www.w3.org/2000/svg" width="455" height="792" viewBox="338.5 0 455 792" xml:space="preserve"><path fill="#FDFDFC" d="M743.609 538.919c-3.781-8.037-4.736-16.443-5.598-24.88-1.119-10.979-2.37-21.941-3.398-32.928-.498-5.32-.521-10.687-.953-16.015-.244-2.997-.5-6.093-1.42-8.917-5.221-16.01-10.461-32.02-16.098-47.881-2.007-5.65-5.14-10.889-7.71-16.214 6.135-4.599 12.748-7.483 20.324-8.81 4.864-.853 9.478-3.635 13.972-6.007 1.603-.846 3.266-2.875 3.622-4.634 1.478-7.271 1.343-14.562-3.675-20.564-2.863-3.428-7.063-4.354-11.419-3.715-10.191 1.493-19.834-.563-29.176-4.567-.688-.295-1.302-1.073-1.68-1.777-6.04-11.276-12.961-21.859-21.602-31.334-4.226-4.633-7.275-10.356-11.109-15.386-4.063-5.33-8.261-10.576-12.712-15.569-3.48-3.905-7.175-7.714-11.24-10.96-11.301-9.021-18.815-21.178-26.704-32.98-2.677-4.004-3.854-9.018-6.023-13.412-2.126-4.305-4.71-8.375-6.958-12.622-.714-1.349-.936-2.959-1.486-4.41a2446.608 2446.608 0 0 0-7.848-20.418c-.849-2.172-1.855-4.28-2.896-6.662 19.633-6.312 32.203-18.828 36.288-39.178 2.909 0 5.435.455 7.731-.087 6.451-1.523 10.371-6.166 8.806-13.892-1.81-8.921 1.231-15.76 4.724-23.059 4.146-8.673 7.23-17.651 6.591-27.555-1.135-17.522-7.599-32.242-21.344-43.368-12.488-10.108-26.468-15.426-42.521-14.436-13.84.854-26.073 5.784-36.655 15.019-12.313 10.745-18.661 24.687-21.288 40.643a25.177 25.177 0 0 0-.169 6.94c.563 4.771-.896 8.879-2.778 13.153-1.199 2.722-.924 6.096-1.456 9.151-.318 1.823-.465 3.942-1.481 5.321-2.282 3.096-4.989 5.885-7.656 8.665-2.72 2.833-5.718 4.92-10.023 4.571-4.423-.358-8.319 1.883-11.18 4.885-4.896 5.137-11.179 7.83-16.94 11.463-1.985 1.253-3.906 2.694-5.609 4.32-6.067 5.793-12.521 11.278-17.876 17.702-4.44 5.325-7.567 11.792-11.223 17.786-1.532 2.513-3.208 4.99-4.341 7.691-6.382 15.221-9.869 31.282-13.058 47.432-1.73 8.761-4.014 17.417-5.516 26.214-1.058 6.199-1.103 12.57-1.819 18.837-.741 6.481-1.592 12.959-2.672 19.39-2.799 16.655-5.596 33.313-8.72 49.907-1.155 6.132-3.337 12.057-4.839 18.131-1.386 5.609-2.672 11.26-3.675 16.951-1.511 8.565-3.113 17.146-3.979 25.792-.833 8.317-1.098 16.729-1.016 25.096.07 7.184 5.435 11.211 11.005 13.469 7.438 3.017 10.211 7.855 10.746 15.711.446 6.543 2.809 12.932 4.059 19.439 1.83 9.545.695 19.012-.896 28.498-.719 4.282-.082 8.817-.929 13.061-1.098 5.498-3.021 10.829-4.658 16.209-2.521 8.279-4.762 16.67-7.748 24.773-3.572 9.694-7.577 19.244-11.815 28.657-3.926 8.723-7.187 17.523-8.061 27.188-.275 3.046-1.803 5.957-2.595 8.974-1.731 6.591-3.082 13.3-5.102 19.793-2.385 7.67-5.318 15.163-8.009 22.734-1.115 3.135-2.574 6.194-1.308 9.699.717 1.982.126 3.208-1.826 4.531-7.572 5.139-14.51 11.037-19.585 18.926-3.267 5.074-3.18 12.781-.079 18.069 5.839 9.952 14.553 16.452 24.528 21.272 6.188 2.989 12.654 5.487 19.19 7.583 4.293 1.376 8.938 1.257 13.008 3.903 6.746 4.387 13.449 9.08 20.744 12.286 7.96 3.498 16.437 6.259 24.956 7.772 5.063.898 10.666-1.083 15.972-2.077 1.362-.256 2.962-1.397 3.688-2.608 3.276-5.457 3.979-14.496-.704-20.257-5.571-6.854-10.104-14.583-15.101-21.925-.925-1.357-1.913-2.674-3.113-4.347 7.468-1.966 8.562-7.913 9.233-14.103.75-6.869 1.061-13.821 2.343-20.585.592-3.125 3.07-5.866 4.628-8.816 4.046-7.669 8.458-15.173 11.983-23.085 4.983-11.188 9.188-22.735 13.948-34.032 2.975-7.056 6.555-13.849 9.497-20.916 2.665-6.401 4.84-13.015 7.22-19.539.784-2.152 1.162-4.56 2.352-6.44 4.869-7.695 8.056-16.052 10.19-25.758 2.22 3.128 3.894 5.938 5.99 8.366 7.989 9.26 13.66 20.013 19.688 30.584 4.813 8.443 10.44 16.4 15.559 24.669 4.796 7.75 9.324 15.674 14.123 23.423 1.878 3.034 3.817 6.188 6.347 8.617 8.029 7.711 13.031 17.553 18.459 27.008 4.389 7.642 6.577 16.239 6.32 25.268-.261 9.165.229 18.213 3.604 26.87 2.147 5.51 5.861 9.094 11.832 9.534 18.051 1.336 34.088-4.468 47.686-16.078 7.09-6.053 15.021-9.396 23.332-12.598 9.494-3.658 18.689-8.224 26.19-15.159 4.361-4.033 7.976-9.429 10.483-14.896 3.882-8.466-1.767-16.721-11.464-17.559-5.361-.464-10.797.024-16.176-.309-7.365-.456-14.714-1.231-22.062-1.979-3.195-.323-4.59-2.127-4.738-5.588-.264-6.193-2.11-11.922-5.145-17.444-1.715-3.123-1.969-7.125-2.668-10.773-2.922-15.248-10.014-28.501-18.61-41.082-1.744-2.552-3.396-5.281-4.479-8.166-3.783-10.067-10.015-18.424-17.359-25.918-3.424-3.492-3.835-7.891-3.99-11.999-.199-5.247-1.881-9.894-3.167-14.79-2.048-7.797-3.353-15.794-5.173-23.658-2.379-10.277-6.534-19.807-11.714-28.962-4.302-7.604-8.155-15.477-12.031-23.32-2.052-4.158-3.779-8.488-5.521-12.796-.308-.762-.306-2.313.146-2.634 6.396-4.533 6.647-11.678 6.809-18.304.222-9.182-.891-18.388-1.098-27.592-.127-5.703.221-11.434.613-17.131.626-9.079 1.466-18.144 2.22-27.212l1.721-20.693c2.792 2.783 5.563 5.093 7.791 7.858 5.796 7.198 13.462 11.652 21.464 15.578 10.363 5.085 19.523 11.792 28.004 20.563-2.432.403-4.461 1.018-6.494 1.032-12.472.095-19.16 15.609-16.51 25.424 2.563 9.498 5.838 18.812 9.159 28.072.896 2.508 2.702 5.062 4.78 6.664 3.792 2.922 5.057 6.813 6.471 11.144 2.565 7.865 5.659 15.593 9.108 23.104 2.901 6.32 6.515 12.317 10.004 18.344 4.139 7.143 5.31 15.174 6.945 23.059 1.566 7.56 3.241 15.126 4.182 22.778.972 7.894.958 15.906 1.671 23.841.582 6.487 1.6 12.935 2.422 19.399 1.057 8.29 2.063 16.587 3.184 24.867 1.248 9.22 2.607 18.423 3.904 27.634.373 2.637.908 5.271 1.01 7.922.276 7.131 3.635 12.177 8.732 17.024 11.498 10.939 25.077 9.53 38.723 7.896 9.854-1.181 12.269-11.73 10.994-18.944-2.017-11.414-4.494-22.761-6.028-34.24-1.314-9.847-1.479-19.849-2.343-29.766-.814-9.34-.109-19.01-5.18-27.834M616.369 139.15c-.151 2.112.26 4.482-.543 6.295-5.673 12.827-16.167 19.911-28.907 23.734-7.366 2.209-8.501 1.483-11.6-3.771-1.911-4.068-5.902-4.575-8.158-.567.975 1.357 1.688 3.087 2.963 4.01 8.488 6.14 13.089 15.144 17.575 24.249.232.474-.011 1.192.342 2.123 2.213 4.555 5.376 8.741 5.127 14.241-.034.738.445 1.548.823 2.25 3.278 6.098 6.703 12.118 9.849 18.286 2.218 4.352 3.682 9.14 6.18 13.299 3.946 6.576 8.479 12.789 13.187 19.396 1.245 1.417 2.385 2.951 3.752 4.233 6.65 6.241 13.65 12.126 19.96 18.703 5.029 5.245 9.32 11.24 13.796 17.018 4.491 5.799 8.587 11.927 13.249 17.574 6.924 8.391 12.963 17.358 17.832 27.095 1.645 3.289 4.103 4.89 7.19 6.13 3.351 1.346 6.643 2.844 10.364 3.91 7.802.298 15.604.542 23.401.957 1.056.056 2.736.751 2.978 1.521.925 2.965 1.381 6.081 2.151 9.836-9.682 2.835-18.847 5.519-28.383 8.495-2.001 1.396-4 2.795-6.336 4.552-.628.563-1.201 1.205-1.891 1.674-3.972 2.698-4.805 5.103-2.994 9.375 3.418 8.069 7.229 15.982 10.285 24.191 4.74 12.745 9.114 25.635 13.354 38.563 1.25 3.813 1.741 7.935 2.166 11.96.506 4.814.369 9.7.86 14.519 1.052 10.3 2.576 20.554 3.443 30.866.853 10.118 2.104 20.028 6.404 29.377 1.68 3.651 3.191 7.628 3.617 11.586 1.305 12.123 2.318 24.295 2.93 36.476.714 14.233 2.492 28.238 6.368 41.953.881 3.118-.771 6.435-3.993 6.837-5.289.66-10.676.527-16.561.597-6.434-.515-11.103-4.365-15.597-8.549-3.789-3.526-3.185-8.494-3.899-12.945-1.188-7.401-1.941-14.874-2.935-22.31-.407-3.052-1.063-6.069-1.428-9.127-.795-6.639-.995-13.391-2.303-19.918-2.295-11.448-3.238-22.971-3.51-34.604-.097-4.086-.271-8.212-.923-12.231a343.454 343.454 0 0 0-4.13-21.209c-1.979-8.712-4.277-17.35-6.895-26.268-.83-1.555-1.619-3.132-2.5-4.655-2.56-4.426-5.483-8.668-7.657-13.28-3.232-6.864-6.039-13.944-8.805-21.024-.663-1.698-.447-3.753-.896-6.081-2.258-4.162-4.516-8.323-7.291-12.518-1.829-2.103-4.19-3.937-5.371-6.365-2.072-4.271-3.568-8.856-5.029-13.403-1.2-3.734-2.139-7.573-2.938-11.422-.854-4.124 3.041-11.55 6.521-12.136 5.815-.982 11.718-1.441 17.543-2.376 1.69-.271 3.248-1.415 4.735-2.762-.117-5.949-3.721-9.736-7.72-13.449-9.063-8.412-18.427-16.385-29.776-21.44-10.446-4.655-18.172-12.651-26.029-20.712-4.665-4.784-10.411-8.476-15.942-12.233-2.216-.965-2.707.25-2.7 2.18.019 4.027.196 8.066-.031 12.081-.611 10.815-1.405 21.62-2.12 32.431-.493 7.444-.961 14.893-1.492 22.335-.039.541-.502 1.051-.706 2.268-.021 4.452-.041 8.904.04 13.957.12 2.217.313 4.434.333 6.65.014 1.552-.355 3.109-.308 4.658.174 5.556.283 11.122.74 16.655.35 4.23-1.663 7.141-4.713 9.218-4.598 3.131-4.555 6.005-2.685 10.029.528 1.168 1.119 2.313 1.572 3.511.941 2.493 1.572 5.139 2.75 7.505 4.063 8.156 8.336 16.204 12.47 24.323 2.666 5.237 4.986 10.671 7.891 15.763 3.602 6.316 5.258 13.156 6.445 20.229.825 4.925 1.389 9.984 2.969 14.67 2.629 7.795 4.404 15.621 5.116 23.866.372 4.307 1.967 8.52 5.738 11.9 3.967 3.556 7.154 8.202 9.996 12.811 2.732 4.43 4.301 9.589 6.892 14.124 4.475 7.836 9.424 15.388 14.026 23.149 4.438 7.482 6.597 15.747 7.865 24.349.49 3.323 1.438 6.724 2.905 9.718 2.501 5.108 5.329 9.961 3.543 16.024-.251.854-.265 2.26.239 2.79 3.161 3.323 5.938 7.562 10.819 8.177 8.296 1.047 16.649 1.696 24.996 2.239 4.659.303 9.355.009 14.033.066 4.451.057 6.23 2.438 4.187 6.41-1.711 3.324-3.928 6.706-6.732 9.054-7.29 6.097-15.68 10.406-24.482 13.893-5.682 2.25-11.509 4.316-16.811 7.312-3.934 2.225-6.996 5.991-10.68 8.747-9.687 7.246-20.929 10.405-32.578 12.311-4.92.805-8.355-1.439-9.785-6.433-3.207-11.19-1.957-22.771-2.834-34.729-.256-.889-.514-1.778-.797-3.221-1.433-2.923-3.26-5.719-4.217-8.793-2.679-8.605-8.26-15.479-12.87-22.896-2.561-4.116-6.531-7.298-9.307-11.303-4.414-6.372-8.355-13.084-12.505-19.647-7.149-11.313-14.639-22.424-21.361-33.996-6.334-10.905-12-22.169-20.299-31.807-4.523-5.255-8.229-11.231-12.539-16.69-2.125-2.693-5.158-2.325-6.661.607-1.06 2.067-1.692 4.364-2.479 6.572-2.112 5.93-4.021 11.942-6.355 17.78-2.47 6.172-5.563 12.087-7.963 18.282-2.022 5.216-2.6 11.169-5.302 15.919-6.125 10.772-10.3 22.343-14.909 33.754-2.229 5.519-4.164 11.164-6.536 16.615-1.912 4.396-4.288 8.578-6.439 12.866-2.051 4.09-3.938 8.271-6.154 12.269-2.106 3.803-5.407 7.146-6.63 11.179-1.793 5.925-2.279 12.271-3.179 18.461-.581 3.989-.824 8.03-1.442 12.013-.07.462-1.709 1.153-2.398.951-3.201-.938-6.323-2.156-10.391-3.599.346 4.36-.466 8.979 1.213 12.292 3.863 7.625 8.797 14.71 13.568 21.826 2.899 4.323 6.32 8.284 9.48 12.431 2.496 3.276 2.402 5.231-1.363 6.817-3.004 1.266-6.694 2.008-9.855 1.51-13.037-2.054-24.406-8.399-35.414-15.455-5.424-3.475-10.781-6.68-17.443-7.69-5.709-.864-11.353-2.985-16.703-5.317-8.454-3.687-15.654-9.425-22.132-16.048-4.124-4.216-4.524-7.694-.925-12.364 2.396-3.109 5.444-5.699 8.251-8.993a22.824 22.824 0 0 1 1.928-.908c.305-.286.61-.573.96-1.327.507-.25 1.015-.501 1.923-.869.305-.285.608-.57.959-1.326.514-.248 1.026-.496 1.938-.864.298-.29.596-.581.938-1.337.502-.254 1.004-.509 1.916-.883.305-.294.609-.587.959-1.338.495-.254.99-.507 1.894-.887.312-.291.625-.581.987-1.331.504-.241 1.007-.482 1.848-.806.227-.108.363-.289.351-1.063.733-1.142 1.465-2.28 1.965-3.877-1.194-.713-2.561-1.242-3.53-2.193-.894-.876-2.094-2.381-1.88-3.301.678-2.926 1.972-5.699 2.994-8.543 2.22-6.172 4.628-12.281 6.556-18.547 1.407-4.565 2.104-9.354 3.231-14.017 1.377-5.694 2.889-11.354 4.314-17.038.97-3.866 1.525-7.891 2.932-11.582 1.784-4.688 4.41-9.034 6.363-13.664 2.583-6.122 4.832-12.391 7.294-18.566 1.354-3.396 3.173-6.634 4.21-10.118 1.705-5.729 2.708-11.677 4.451-17.393 1.599-5.243 4.583-10.151 5.542-15.475 1.794-9.941 2.827-20.053 3.661-30.138.521-6.31.381-12.716.01-19.046-.307-5.208-.583-10.673-2.323-15.479-2.506-6.922-2.979-14.012-4.072-21.514-1.275-1.05-2.448-2.281-3.847-3.114-4.35-2.591-8.948-4.786-13.104-7.654-1.558-1.074-2.87-3.512-3.046-5.444-.313-3.44.234-6.979.584-10.46.612-6.088 1.271-12.171 2.054-18.236.641-4.978 1.431-9.938 2.259-14.886 1.313-7.835 2.545-15.698 5.743-23.583.488-1.739 1.115-3.451 1.441-5.222 1.652-8.982 3.227-17.98 4.946-27.586 1.952-10.489 4.035-20.957 5.805-31.479 1.002-5.955 1.527-11.996 2.198-18.006.749-6.723.985-13.539 2.212-20.167 2.622-14.172 5.45-28.321 8.761-42.34 2.038-8.636 4.588-17.241 7.903-25.442 2.75-6.799 6.941-12.995 10.521-19.443 3.438-6.194 7.708-11.687 13.252-16.086 2.23-1.771 4.418-3.603 6.688-5.32 3.62-2.736 7.196-5.553 10.973-8.05 3.503-2.317 8.445-3.403 10.616-6.558 3.772-5.481 8.275-6.491 14.5-5.92 2.988-2.107 6.46-3.761 8.861-6.419 4.682-5.185 8.766-10.932 13.064-17.083-.177-2.711-.86-5.517-.399-8.11.571-3.214 2.012-6.286 3.244-9.35.456-1.135 1.385-2.073 2.261-3.539-.509-3.382-1.807-6.868-1.391-10.127 1.807-14.165 7.596-26.334 18.385-35.876 9.004-7.963 19.432-12.116 31.205-12.886 12.733-.833 23.75 3.867 33.736 11.458 13.069 9.933 19.211 23.475 19.369 39.89.068 7.231-2.775 13.784-5.923 20.047-4.239 8.441-8.045 16.764-5.557 26.691 1.055 4.209-.012 4.675-4.283 4.687-3 .009-6.328-2.749-9.371 1.123-1.669 2.76-3.338 5.521-4.85 8.829l.014-.001z"/><path fill="#0F0909" d="M621.438 684.464c.732 11.407-.518 22.985 2.689 34.177 1.431 4.993 4.865 7.236 9.785 6.434 11.65-1.905 22.893-5.064 32.578-12.311 3.685-2.756 6.746-6.522 10.682-8.747 5.301-2.995 11.127-5.062 16.811-7.312 8.802-3.486 17.19-7.797 24.48-13.894 2.807-2.347 5.022-5.729 6.732-9.053 2.045-3.973.267-6.354-4.185-6.41-4.68-.059-9.375.235-14.035-.067-8.347-.542-16.697-1.192-24.995-2.238-4.882-.616-7.658-4.854-10.82-8.177-.504-.53-.49-1.937-.238-2.791 1.785-6.063-1.043-10.915-3.544-16.023-1.467-2.995-2.413-6.396-2.905-9.719-1.27-8.601-3.427-16.864-7.864-24.348-4.603-7.763-9.554-15.314-14.027-23.149-2.59-4.535-4.158-9.695-6.889-14.124-2.845-4.608-6.031-9.255-9.998-12.811-3.771-3.383-5.367-7.595-5.739-11.9-.712-8.246-2.487-16.072-5.116-23.866-1.58-4.686-2.143-9.745-2.969-14.671-1.188-7.073-2.843-13.912-6.445-20.229-2.902-5.093-5.226-10.524-7.891-15.762-4.132-8.121-8.406-16.168-12.469-24.323-1.18-2.366-1.811-5.013-2.75-7.506-.451-1.197-1.043-2.342-1.918-3.384-3.943 6.003-7.25 12.094-11.241 17.674-2.38 3.327-5.416 6.686-8.917 8.529-4.245 2.236-9.281 3.966-13.996 4.024-13.109.161-26.238-.498-39.343-1.165-4.979-.253-9.986-1.083-14.849-2.23-8.771-2.07-17.398-4.758-26.166-6.854-8.819-2.108-17.825-3.46-26.564-5.85-3.897-1.063-7.542-2.076-11.519-1.188.842 7.116 1.315 14.206 3.822 21.127 1.74 4.806 2.016 10.27 2.323 15.479.372 6.33.512 12.737-.009 19.046-.833 10.085-1.867 20.195-3.661 30.139-.959 5.32-3.943 10.229-5.542 15.475-1.743 5.715-2.745 11.662-4.451 17.393-1.037 3.484-2.856 6.723-4.209 10.117-2.462 6.178-4.711 12.444-7.294 18.567-1.954 4.629-4.58 8.977-6.364 13.664-1.406 3.69-1.962 7.715-2.932 11.582-1.427 5.683-2.938 11.344-4.314 17.038-1.127 4.661-1.825 9.449-3.231 14.017-1.927 6.265-4.335 12.375-6.555 18.545-1.021 2.845-2.316 5.619-2.994 8.544-.214.92.987 2.424 1.88 3.302.969.949 2.336 1.479 3.896 2.471 8.589 5.169 16.811 10.062 25.298 14.956 4.827 2.082 9.388 4.163 13.938 6.239-1.509.347-3.224.695-4.913 1.137-7.509 1.954-14.626 1.809-20.353-4.421-3.708-4.033-7.174-8.296-10.965-12.577-1.615-1.884-3.043-3.501-5.281-1.212-.044.252-.18.432-.627.793-.706.505-1.191.759-1.676 1.013-.313.29-.625.581-1.194 1.146-.731.539-1.207.804-1.684 1.068-.305.293-.609.587-1.17 1.152-.739.54-1.22.808-1.703 1.076-.298.291-.596.581-1.15 1.146-.746.536-1.237.799-1.728 1.063-.305.284-.608.568-1.169 1.126-.741.537-1.226.802-1.712 1.065-.305.286-.61.572-1.172 1.133-.746.552-1.235.829-1.723 1.107-2.756 2.821-5.804 5.411-8.199 8.521-3.6 4.67-3.198 8.148.924 12.363 6.479 6.623 13.679 12.362 22.133 16.048 5.349 2.332 10.992 4.453 16.702 5.318 6.662 1.011 12.021 4.216 17.444 7.69 11.008 7.056 22.376 13.4 35.413 15.455 3.163.498 6.854-.244 9.856-1.51 3.769-1.587 3.86-3.542 1.364-6.817-3.16-4.146-6.581-8.106-9.481-12.432-4.771-7.114-9.705-14.199-13.567-21.825-1.679-3.313-.867-7.932-1.213-12.292 4.066 1.441 7.189 2.658 10.391 3.599.688.202 2.328-.489 2.398-.951.618-3.98.862-8.021 1.442-12.013.899-6.189 1.384-12.536 3.179-18.461 1.223-4.033 4.522-7.376 6.631-11.18 2.213-3.994 4.103-8.178 6.153-12.268 2.151-4.288 4.526-8.472 6.438-12.866 2.372-5.452 4.31-11.098 6.538-16.616 4.607-11.411 8.783-22.979 14.908-33.754 2.702-4.75 3.278-10.704 5.301-15.918 2.401-6.196 5.494-12.112 7.964-18.283 2.335-5.837 4.244-11.851 6.355-17.779.786-2.209 1.421-4.505 2.479-6.572 1.502-2.935 4.535-3.302 6.66-.609 4.31 5.46 8.015 11.438 12.54 16.691 8.298 9.638 13.964 20.899 20.298 31.809 6.721 11.572 14.21 22.683 21.36 33.995 4.148 6.563 8.09 13.275 12.504 19.647 2.774 4.005 6.747 7.187 9.307 11.303 4.61 7.416 10.192 14.289 12.871 22.895.957 3.075 2.784 5.87 4.532 9.163 5.581-1 11.13-1.711 16.044-3.896 7.003-3.114 13.537-7.32 20.291-11.025.412-.226.988-.143 1.681-.228-1.21 2.567-2.19 4.86-3.347 7.058-2.279 4.326-5.495 7.855-10.337 8.777-5.004.953-10.149 1.119-15.229 1.669-2.83.307-5.652.694-8.477 1.048v-.006h.003z"/><path fill="#F4690A" d="M427.679 445.009c4.104-.692 7.747.318 11.645 1.383 8.739 2.39 17.744 3.74 26.563 5.85 8.767 2.096 17.396 4.782 26.167 6.854 4.862 1.147 9.87 1.979 14.848 2.23 13.104.667 26.233 1.327 39.343 1.165 4.716-.06 9.75-1.789 13.996-4.024 3.502-1.845 6.539-5.202 8.918-8.528 3.992-5.581 7.298-11.673 10.999-17.777-1.282-4.048-1.326-6.922 3.271-10.053 3.053-2.076 5.063-4.985 4.714-9.218-.458-5.533-.567-11.1-.739-16.654-.048-1.548.32-3.107.308-4.659a39.532 39.532 0 0 0-.68-6.967c-1.865-.057-3.551-.143-4.881.519-9.001 4.464-18.81 4.003-28.371 5.016-11.953 1.267-23.515-1.999-35.141-3.728-15.074-2.241-30.052-5.434-44.892-8.994-15.091-3.62-29.967-8.176-44.931-12.345-3.554-.99-7.083-2.068-10.624-3.105-3.192 7.354-4.425 15.216-5.738 23.051-.828 4.948-1.618 9.908-2.259 14.886-.782 6.065-1.441 12.148-2.054 18.235-.349 3.48-.896 7.021-.583 10.46.176 1.935 1.488 4.372 3.045 5.446 4.156 2.868 8.755 5.063 13.104 7.653 1.399.834 2.571 2.063 3.972 3.308h-.001v-.004z"/><path fill="#C1B7AC" d="M418.197 361.702c3.539 1.304 7.066 2.382 10.621 3.372 14.964 4.168 29.84 8.724 44.931 12.346 14.84 3.561 29.816 6.752 44.892 8.993 11.625 1.729 23.188 4.993 35.141 3.728 9.562-1.013 19.369-.552 28.371-5.016 1.33-.66 3.015-.574 4.831-.818.314-4.437.335-8.889.038-13.67-1.588-.596-2.854-.877-4.129-1.128-4.289-.845-5.27-3.689-4.78-7.714.438-3.611.52-7.267.792-10.898 1.18-15.74 2.301-31.485 3.602-47.216.427-5.171 1.331-10.302 1.805-15.593-.852-1.962-1.491-3.782-2.429-5.649-2.322.174-4.346.395-6.41.933-.182 1.284-.273 2.261-.468 3.216-4.114 20.256-8.23 40.51-12.364 60.762-1.11 5.446-2.279 10.882-3.433 16.366l-92.031-14.663c2.168-15.171 4.188-29.862 6.384-44.528 3.391-22.625 6.324-45.345 10.595-67.798 2.351-12.359 6.796-24.339 10.729-36.343 6.113-18.662 20.583-28.635 37.569-35.027 8.327-3.133 17.415-4.163 26.129-6.407-2.979-6.257-7.656-9.448-14.519-9.195-1.207.552-2.244 1.245-3.231 1.179-6.493-.434-12.356 2.054-17.872 4.766-8.034 3.95-16.543 7.768-23.191 13.601-17.277 15.163-28.912 34.583-36.282 56.512-8.41 25.023-13.533 50.912-18.685 76.773-2.131 10.703-3.93 21.475-6.027 32.186-.239 1.218-1.561 3.259-2.182 3.186-3.63-.43-7.429-.878-10.674-2.411-1.185-.56-1.006-4.113-1.451-6.302-1.601 8.993-3.175 17.991-4.828 26.974-.326 1.771-.953 3.482-1.443 5.487h.002v-.004z"/><path fill="#352730" d="M575.508 283.052c2.025-.221 4.049-.441 6.503-.858 2.458-1.185 4.397-2.478 6.525-3.108 7.707-2.283 15.464-4.398 23.229-6.469 5.446-1.452 8.406-5.583 11.019-10.161-4.285-6.366-8.816-12.579-12.765-19.154-2.495-4.16-3.959-8.948-6.179-13.299-3.145-6.167-6.571-12.188-9.849-18.286-.377-.701-.856-1.512-.823-2.25.25-5.5-2.915-9.687-5.574-14.405-5.075-4.197-9.636-8.313-14.343-12.248-9.819-8.208-20.834-10.41-33.246-7.461-9.094 2.161-17.611 5.717-25.523 10.412-8.811 5.227-16.394 12.167-18.081 23.281-2.214 14.577-2.586 29.275 2.2 43.348 2.434 7.156 8.271 12.16 15.389 14.995 4.545 1.81 9.188 3.369 13.823 4.933 2.146.723 4.348 1.524 6.566 1.696 3.744.29 6.579 1.66 8.652 4.964 2.507 3.999 6.121 6.19 10.932 5.501 4.349-.622 8.669-1.431 12.997-2.193 2.925-.515 5.881-1.626 8.548.762z"/><path fill="#F5690B" d="M575.472 283.367c-2.625-2.705-5.582-1.593-8.503-1.079-4.328.761-8.649 1.571-12.998 2.193-4.81.688-8.423-1.503-10.93-5.502-2.072-3.304-4.909-4.674-8.652-4.963-2.22-.172-4.423-.973-6.566-1.697-4.634-1.563-9.279-3.123-13.823-4.933-7.118-2.835-12.956-7.838-15.39-14.995-4.787-14.072-4.413-28.77-2.199-43.347 1.687-11.114 9.27-18.055 18.08-23.281 7.913-4.695 16.429-8.251 25.522-10.412 12.413-2.949 23.428-.748 33.247 7.461 4.707 3.935 9.27 8.05 14.155 12.083.281-.604.526-1.322.293-1.796-4.486-9.104-9.089-18.109-17.575-24.249-1.275-.923-1.99-2.653-3.279-4.313-2.959-1.979-5.599-3.655-8.238-5.331-8.743 1.981-17.832 3.011-26.158 6.145-16.986 6.391-31.456 16.365-37.569 35.027-3.933 12.004-8.378 23.984-10.729 36.343-4.271 22.454-7.204 45.174-10.593 67.798-2.199 14.665-4.217 29.357-6.387 44.528l92.032 14.664c1.152-5.486 2.32-10.921 3.433-16.366 4.134-20.251 8.252-40.507 12.363-60.762.195-.956.288-1.932.469-3.216h-.005z"/><path fill="#C4D9EE" d="M621.502 129.874c2.764-3.422 6.091-.666 9.09-.674 4.272-.012 5.339-.477 4.283-4.687-2.488-9.927 1.316-18.249 5.559-26.691 3.146-6.263 5.989-12.816 5.921-20.047-.157-16.415-6.298-29.957-19.367-39.89-9.986-7.59-21.004-12.29-33.737-11.458-11.773.771-22.202 4.923-31.206 12.886-10.789 9.542-16.577 21.711-18.384 35.876-.417 3.259.881 6.746 1.555 10.478 5.498 1.136 10.827 2.437 16.174 2.52 3.403.053 6.801-1.863 10.261-2.604 5.76-1.234 11.706-2.145 16.967 1.357 7.317 4.871 11.257 12.15 12.964 21.048 3.896 3.543 8.01 6.543 11.403 10.231 3.231 3.511 5.711 7.741 8.521 11.655h-.004z"/><path fill="#F69C25" d="M424.525 328.938c.384 2.493.205 6.048 1.392 6.607 3.244 1.533 7.042 1.98 10.672 2.41.622.074 1.943-1.967 2.183-3.187 2.099-10.709 3.896-21.48 6.027-32.185 5.151-25.861 10.274-51.749 18.686-76.772 7.371-21.93 19.004-41.35 36.281-56.512 6.649-5.834 15.158-9.651 23.19-13.601 5.516-2.712 11.38-5.199 17.872-4.766.988.066 2.025-.626 3.218-1.469.353-3.571-1.159-5.248-3.812-6.669-7.672-4.111-15.174-8.552-22.742-12.863-5.7-.682-10.206.328-13.977 5.809-2.171 3.155-7.113 4.241-10.616 6.558-3.776 2.497-7.353 5.313-10.973 8.05-2.271 1.717-4.458 3.549-6.688 5.32-5.544 4.399-9.814 9.893-13.252 16.086-3.581 6.448-7.771 12.645-10.521 19.443-3.315 8.201-5.866 16.806-7.905 25.442-3.31 14.019-6.138 28.167-8.759 42.34-1.228 6.628-1.465 13.443-2.213 20.167-.67 6.01-1.196 12.051-2.198 18.006-1.77 10.523-3.853 20.99-5.865 31.786z"/><path fill="#B97252" d="M623 262.577c-2.824 4.458-5.785 8.589-11.229 10.041-7.768 2.07-15.523 4.186-23.231 6.469-2.128.631-4.067 1.924-6.229 3.156.507 2.063 1.146 3.883 2.291 5.859 3.371-.379 5.462 1.006 6.738 3.346 1.346 2.464 2.231 5.189 3.318 7.8 5.261 4.183 11.007 7.874 15.672 12.659 7.858 8.06 15.582 16.057 26.029 20.711 11.351 5.058 20.714 13.028 29.776 21.441 3.998 3.711 7.604 7.499 8.04 13.814 2.271.837 4.198 1.55 6.173 1.729 4.754.435 9.06 2.021 11.342 6.373 2.657 5.068 6.902 6.137 11.813 6.385 2-1.397 4-2.796 6.26-4.639 1.476-5.576 2.01-10.664-.076-15.752-.53-1.294-.507-2.825-.735-4.247-3.318-1.432-6.61-2.93-9.961-4.274-3.09-1.24-5.547-2.841-7.19-6.13-4.868-9.735-10.909-18.705-17.831-27.094-4.662-5.647-8.759-11.775-13.25-17.575-4.477-5.778-8.766-11.774-13.797-17.019-6.308-6.577-13.309-12.461-19.959-18.702-1.367-1.28-2.507-2.813-3.964-4.351m-5.848 37.355 4.635 2.125-.633 1.665c-1.889-.547-4.047-.685-5.592-1.749-1.748-1.205-.398-1.887 1.59-2.041z"/><path fill="#6292B0" d="M703.333 382.543c-4.741-.427-8.988-1.495-11.646-6.563-2.283-4.353-6.587-5.939-11.343-6.373-1.975-.181-3.901-.895-6.106-1.43-1.875.68-3.433 1.822-5.121 2.095-5.826.935-11.728 1.395-17.544 2.376-3.479.587-7.378 8.012-6.521 12.137.8 3.848 1.736 7.687 2.938 11.421 1.461 4.547 2.957 9.133 5.03 13.403 1.181 2.43 3.541 4.264 5.927 6.32 1.153-.094 1.752-.144 2.371-.47-.031-.881.034-1.527-.159-2.08-2.745-7.835-5.6-15.632-8.27-23.493-1.383-4.077.025-6.235 4.32-6.396 3.316-.124 6.664.636 9.98.505 4.955-.194 7.672 2.37 9.506 6.674 2.229 5.232 4.783 10.324 6.93 15.589 1.535 3.762 2.631 7.709 4.189 11.628 1.338.855 3.106 1.48 3.354 2.491.722 2.963.836 6.079 1.307 9.382 3.302 6.884 6.492 13.519 9.66 20.163.47.984.854 2.014 1.209 3.047 1.305 3.799.365 5.806-3.557 6.021-5.106.283-10.257.021-15.37-.316-.966-.063-2.173-1.412-2.689-2.464-1.438-2.933-2.666-5.983-3.806-9.055-1.727-4.652-3.307-9.361-5.08-14.239-2.389-1.457-4.646-2.722-6.901-3.986.188 1.892-.027 3.945.637 5.645 2.765 7.08 5.572 14.161 8.805 21.024 2.172 4.612 5.1 8.854 7.657 13.28.88 1.523 1.669 3.103 2.813 4.51.291-1.377.597-2.737.186-3.814-1.269-3.333-.668-4.598 2.867-4.409 6.254.332 12.51.805 18.725 1.559 1.203.146 2.904 1.658 3.221 2.856 1.688 6.421 3.359 12.886 4.372 19.441 1.321 8.565 1.979 17.235 3.028 25.848.228 1.866 1.172 3.647 1.354 5.513.649 6.714 1.11 13.447 1.657 20.172.06.718.186 1.434.317 2.142.792 4.2 1.839 8.371 2.337 12.606.714 6.074 1.03 12.197 1.521 18.299.02.241.057.482.104.722.947 4.889 2.204 9.739 2.775 14.674.797 6.897 1.001 13.867 1.625 20.789.299 3.327.696 6.692 1.535 9.91 1.972 7.571 3.239 14.887-3.641 20.799-.081.07-.095.222-.139.335 5.345-.201 10.729-.067 16.02-.729 3.223-.401 4.874-3.718 3.994-6.836-3.876-13.715-5.653-27.72-6.368-41.953-.61-12.181-1.627-24.353-2.93-36.477-.426-3.958-1.938-7.935-3.619-11.586-4.299-9.348-5.551-19.258-6.401-29.376-.868-10.313-2.394-20.567-3.444-30.866-.491-4.817-.354-9.703-.861-14.519-.424-4.025-.916-8.148-2.167-11.96-4.235-12.93-8.61-25.82-13.353-38.563-3.052-8.209-6.866-16.122-10.284-24.191-1.81-4.272-.978-6.678 2.992-9.375.685-.473 1.26-1.116 2.057-1.857z"/><path fill="#152127" d="M727.428 640.758c.314-.047.328-.199.408-.269 6.88-5.912 5.611-13.229 3.641-20.799-.838-3.219-1.236-6.584-1.536-9.91-.621-6.923-.826-13.893-1.623-20.79-.571-4.935-1.828-9.785-2.775-14.674a6.436 6.436 0 0 1-.104-.722c-.488-6.102-.807-12.224-1.521-18.298-.497-4.236-1.543-8.406-2.335-12.606-.133-.709-.26-1.423-.317-2.142-.547-6.726-1.008-13.458-1.659-20.173-.181-1.864-1.125-3.646-1.353-5.513-1.052-8.61-1.707-17.28-3.028-25.846-1.013-6.558-2.685-13.022-4.372-19.443-.315-1.198-2.018-2.711-3.221-2.856-6.216-.754-12.471-1.227-18.724-1.559-3.536-.188-4.138 1.076-2.868 4.409.411 1.078.104 2.438.042 3.939 2.076 8.938 4.374 17.576 6.354 26.288a342.706 342.706 0 0 1 4.129 21.209c.652 4.021.827 8.146.923 12.231.271 11.635 1.217 23.157 3.51 34.604 1.309 6.526 1.51 13.279 2.304 19.918.365 3.057 1.021 6.075 1.427 9.127.994 7.436 1.746 14.907 2.936 22.31.716 4.451.11 9.419 3.899 12.946 4.49 4.187 9.16 8.039 15.863 8.619m-11.598-31.21c4.298 5.328 7.982-.323 12.012-1.129 1.303 4.904-3.342 4.528-5.008 6.53-.727.869-3.371 1.326-4.129.699-3.023-2.503-5.68-5.474-8.373-8.363-.332-.355-.076-1.278-.093-1.938.728.077 1.691-.116 2.137.285 1.147 1.038 2.062 2.339 3.454 3.916z"/><path fill="#B77A55" d="M517.759 129.874c7.308 4.367 14.81 8.807 22.48 12.918 2.652 1.421 4.164 3.098 4.004 6.459 6.685.248 11.362 3.438 14.341 9.695 2.67 1.938 5.309 3.614 8.181 5.348 2.659-3.459 6.649-2.953 8.795.951.832-5.333 1.362-10.51 2.102-15.657.1-.694 1.25-1.231 1.917-2.136-.803-4.554-1.612-8.812-2.417-13.07-.656-3.463-1.308-6.927-2.216-10.432-4.871-3.072-7.101-8.39-6.043-13.646.47-2.34.78-4.714.949-6.944-4.255 3.052-8.35 5.905-12.326 8.919-3.824 2.899-8.125 2.376-12.326 1.81-3.375-.454-3.372-3.954-4.54-6.346-.148-.303-.449-.53-.679-.792-4.332 5.514-8.416 11.261-13.101 16.446-2.399 2.66-5.871 4.313-9.121 6.477z"/><path fill="#050407" d="M539.96 106.634c.246.581.547.807.695 1.11 1.169 2.392 1.166 5.892 4.54 6.346 4.202.566 8.503 1.088 12.327-1.81 3.977-3.014 8.07-5.867 12.355-9.166 1.634-2.49 3.139-4.538 4.398-6.732 2.363-4.124 5.943-6.216 9.565-5.383 3.586.824 5.364 3.515 5.951 8.649 2.114 2.412 3.969 4.782 6.096 7.184 2.045.326 3.819.619 5.595.912-1.613-8.655-5.551-15.935-12.868-20.805-5.262-3.502-11.208-2.592-16.968-1.357-3.459.741-6.857 2.658-10.261 2.605-5.346-.083-10.674-1.384-16.257-2.302-.957.896-1.885 1.834-2.341 2.969-1.232 3.064-2.673 6.136-3.245 9.35-.46 2.596.225 5.4.418 8.43z"/><path fill="#408571" d="M579.568 147.752c-.663.61-1.814 1.147-1.913 1.841-.74 5.147-1.271 10.325-1.908 15.827 2.672 5.248 3.807 5.974 11.172 3.764 12.742-3.822 23.235-10.907 28.909-23.734.801-1.813.391-4.183.229-6.656-1.315-1.551-2.393-2.687-3.31-3.942-1.325-1.812-2.641-3.506-5.321-2.593-.534.808-.979 1.408-1.499 2.237-2.102 2.594-4.699 4.671-6.027 7.391-2.041 4.179-5.125 5.95-9.356 6.163-2.742.139-5.499-.014-8.523-.017-1-.081-1.726-.181-2.453-.281z"/><path fill="#F46A0D" d="M594.521 299.457c-.951-2.824-1.837-5.549-3.183-8.013-1.276-2.339-3.369-3.725-6.524-3.205-.979 5.136-1.885 10.267-2.313 15.438-1.3 15.73-2.422 31.476-3.602 47.215-.272 3.635-.354 7.289-.792 10.899-.488 4.021.492 6.869 4.78 7.714 1.273.251 2.541.532 4.097.782.552-.541 1.017-1.052 1.055-1.593.531-7.442.999-14.891 1.492-22.335.715-10.81 1.51-21.614 2.123-32.431.227-4.015.048-8.054.03-12.081-.006-1.927.485-3.142 2.837-2.39z"/><path fill="#6393B1" d="M709.148 357.544c.028 1.604.004 3.136.534 4.43 2.086 5.089 1.552 10.177.265 15.604 9.089-2.385 18.254-5.067 27.936-7.902-.772-3.755-1.229-6.871-2.152-9.836-.239-.771-1.922-1.466-2.978-1.521-7.796-.416-15.6-.66-23.605-.775z"/><path fill="#ED9735" d="M692.362 429.506c-.354-3.056-.469-6.173-1.189-9.136-.246-1.011-2.016-1.636-3.607-2.401-3.023 2.049-5.528 4.063-8.24 6.262-1.71.05-3.45.361-4.676-.306-3.739-2.036-7.281-4.449-11.125-6.789-.893-.518-1.56-.961-2.226-1.403-.598.049-1.192.099-2.09.208 1.961 4.223 4.219 8.384 6.605 12.765 2.387 1.483 4.644 2.748 7.287 4.313 10.323 5.459 10.598 5.411 18.473-2.77.25-.262.525-.497.788-.743z"/><path fill="#B77C59" d="M607.515 132.051c2.594-.706 3.909.989 5.233 2.8.918 1.255 1.994 2.391 3.23 3.668 1.901-2.673 3.57-5.433 5.381-8.418-2.67-4.139-5.148-8.368-8.381-11.879-3.394-3.688-7.509-6.688-11.403-10.231a22.393 22.393 0 0 0-5.785-.891c1.519 3.592 3.577 6.867 5.249 10.335 2.312 4.795 4.332 9.736 6.476 14.616z"/><path fill="#AFB2CC" d="M621.365 684.192c2.897-.076 5.72-.466 8.549-.771 5.08-.551 10.228-.716 15.229-1.669 4.843-.922 8.058-4.452 10.337-8.778 1.157-2.194 2.137-4.488 3.347-7.057-.691.084-1.269.001-1.681.228-6.753 3.705-13.287 7.91-20.291 11.025-4.914 2.188-10.463 2.897-16.029 4.174-.047.796.209 1.684.539 2.848z"/><path fill="#C9CAD7" d="M413.202 696.652c-8.222-4.894-16.443-9.785-24.916-14.728-.984 1.091-1.715 2.231-2.42 3.633 2.266-2.026 3.693-.409 5.578 1.48 3.83 2.009 7.066 4.136 10.546 5.705 3.602 1.626 6.606 5.24 11.212 3.91zM383.614 687.396c.46-.023.945-.277 1.483-.742-.451.031-.954.272-1.483.742zM380.734 689.612c.453-.037.93-.303 1.457-.777-.444.043-.939.296-1.457.777zM377.862 691.842c.46-.036.942-.304 1.478-.784-.451.043-.953.296-1.478.784zM374.983 694.041c.467-.026.958-.289 1.504-.766-.456.035-.969.283-1.504.766zM372.103 696.241c.463-.03.948-.295 1.489-.772-.452.038-.958.288-1.489.772zM369.208 698.479c.463-.041.952-.319 1.496-.813-.452.049-.96.313-1.496.813z"/><path fill="#B6B9CF" d="M413.467 696.659c-4.872 1.329-7.875-2.286-11.477-3.91-3.48-1.568-6.716-3.696-10.329-5.584 3.306 4.153 6.771 8.417 10.479 12.45 5.728 6.229 12.845 6.375 20.354 4.42 1.688-.439 3.403-.789 4.913-1.136-4.551-2.076-9.112-4.157-13.938-6.24h-.002z"/><path fill="#9E624E" d="M616.874 299.934c-1.708.153-3.058.834-1.31 2.04 1.543 1.064 3.702 1.202 5.592 1.749.211-.555.42-1.11.632-1.666-1.544-.708-3.089-1.417-4.914-2.123z"/><path fill="#172127" d="M679.525 424.05c2.506-2.013 5.012-4.024 7.77-6.129-1.037-3.954-2.135-7.902-3.67-11.664-2.146-5.265-4.699-10.355-6.928-15.589-1.834-4.304-4.553-6.868-9.508-6.674-3.315.131-6.664-.629-9.98-.505-4.295.161-5.703 2.319-4.318 6.396 2.669 7.861 5.521 15.658 8.268 23.493.194.553.128 1.199.159 2.08.644.721 1.311 1.164 2.502 1.674 1.519.067 2.514.067 3.397-.214-.295-.638-.479-.994-.698-1.519.25-.454.532-.74.803-1.047-.014-.021-.023.028.067-.206.343-.679.596-1.12.673-1.725-1.119-1.162-2.065-2.162-3.012-3.162.235-.334.471-.667.704-1.001 1.094.259 2.348.255 3.252.825 2.386 1.5 4.212 1.427 6.339-.709 1.897-1.905 3.137-.985 3.663 2.433.535 1.005.886 1.874 1.449 2.85 3.019 3.735 3.002 3.798-1.689 8.364.279.837.519 1.433.757 2.029m-10.927-17.237-6.046-3.668c.978-.67 1.155-.856 1.368-.92.213-.063.506-.083.686.021 3.067 1.769 6.111 4.398 9.178-.068.176-.256 1.245-.207 1.583.082.315.271.409 1.115.258 1.596-.736 2.332-4.162 3.957-7.027 2.957z"/><path fill="#1E2629" d="M692.477 429.756c-.38 0-.653.235-.902.495-7.876 8.181-8.149 8.228-18.341 2.963a244.001 244.001 0 0 0 4.69 13.938c1.141 3.07 2.367 6.122 3.807 9.055.517 1.052 1.726 2.399 2.688 2.464 5.112.339 10.265.601 15.372.317 3.922-.219 4.859-2.225 3.556-6.022-.354-1.033-.74-2.063-1.21-3.046-3.166-6.647-6.36-13.28-9.66-20.164m8.031 23.795c.424 2.73-1.625 3.104-3.342 3.144a99.478 99.478 0 0 1-11.426-.373c-1.507-.139-2.939-1.11-4.406-1.703l-.539-1.32c.656-.281 1.318-.82 1.969-.806 5.777.126 11.553.352 17.744 1.058m-20.925-10.335c4.208-.276 8.416-.636 12.628-.7.393-.006.813 1.845 1.397 3.267-4.306 0-7.965.117-11.606-.09-.822-.047-1.585-1.218-2.419-2.477z"/><path fill="#BD9D5F" d="M715.635 609.356c-1.197-1.388-2.115-2.688-3.262-3.728-.444-.402-1.409-.208-2.138-.285.018.66-.237 1.583.093 1.938 2.695 2.891 5.351 5.86 8.373 8.362.759.628 3.404.171 4.129-.698 1.666-2.001 6.311-1.626 5.01-6.529-4.029.807-7.716 6.458-12.205.94z"/><path fill="#9E624E" d="M589.532 99.608c-.327-5.092-2.106-7.783-5.692-8.607-3.623-.833-7.203 1.259-9.566 5.383-1.26 2.194-2.765 4.243-4.187 6.603-.411 2.605-.72 4.979-1.19 7.319-1.058 5.256 1.171 10.574 6.263 13.644.77.042 1.063.046 1.56-.104 2.251-4.99 4.066-9.951 6.452-14.61 1.155-2.256 3.382-3.942 5.066-6.148.392-1.333.844-2.406 1.294-3.48m-15.171 16.114c-2.317-1.725-1.407-3.771-.617-5.858.542-1.429.914-2.924 1.394-4.378.741-2.243 1.052-4.854 2.422-6.589 1.008-1.275 3.575-2.162 5.16-1.823 1.598.341 2.839 2.408 4.793 4.238-2.833.478-4.754.232-5.813 1.091-2.756 2.235-4.009 5.493-3.263 9.061.679 3.242-.098 4.749-4.076 4.258z"/><path fill="#D3CBC3" d="M576.524 124a104.47 104.47 0 0 0-1.104-.009c.431 3.466 1.084 6.93 1.741 10.394.805 4.259 1.613 8.517 2.417 13.07.722.395 1.449.496 2.463.287-.226-2.66-.681-5.026-1.271-7.358-1.381-5.471-2.827-10.925-4.246-16.384z"/><path fill="#D7D2CF" d="M589.792 99.653c-.71 1.031-1.162 2.104-1.318 3.474 1.25 1.17 2.562 1.859 3.106 2.946 4.402 8.748 8.648 17.576 12.979 26.361.338.685.954 1.227 1.44 1.834.448-.601.896-1.202 1.428-2.009-2.057-5.086-4.077-10.028-6.388-14.824-1.672-3.468-3.73-6.742-5.521-10.367-1.76-2.634-3.614-5.004-5.729-7.416l.003.001z"/><path fill="#B77B56" d="M605.931 134.493c-.414-.836-1.03-1.378-1.368-2.063-4.33-8.785-8.578-17.613-12.979-26.36-.547-1.087-1.857-1.776-3.05-2.685-1.979 1.909-4.204 3.595-5.359 5.851-2.386 4.658-4.201 9.62-6.452 14.61 1.217 5.613 2.663 11.067 4.045 16.537.59 2.332 1.045 4.699 1.547 7.339 2.734.312 5.491.464 8.232.326 4.231-.213 7.314-1.984 9.355-6.163 1.329-2.721 3.928-4.798 6.029-7.392z"/><path fill="#694B2A" d="M667.331 417.2c-.995 0-1.989 0-3.283.008 3.319 2.273 6.861 4.687 10.602 6.722 1.226.668 2.966.355 4.676.307-.033-.782-.272-1.378-.811-2.236-5.088 1.119-8.016-2.14-11.184-4.801z"/><path fill="#C5BDB5" d="M667.217 416.915c3.275 2.941 6.204 6.2 11.251 4.84 4.991-4.304 5.006-4.365 1.77-7.986-4.341 5.93-8.638 3.345-12.94.609 0 0 .009-.048-.071.193-.278.492-.477.742-.673.992.185.356.368.714.663 1.352z"/><path fill="#C5BDB5" d="M678.82 410.674c-.34-3.283-1.578-4.204-3.477-2.298-2.127 2.136-3.954 2.209-6.339.708-.905-.569-2.158-.566-3.252-.824l-.704 1.001c.945 1 1.893 2 3.269 3.227 5.853 2.787 5.853 2.787 10.503-1.814z"/><path fill="#B2AEA9" d="M668.85 406.927c2.619.886 6.045-.739 6.779-3.073.151-.479.057-1.324-.26-1.596-.338-.289-1.406-.338-1.582-.082-3.066 4.469-6.109 1.838-9.176.068-.181-.104-.476-.083-.687-.021-.215.063-.393.25-1.37.92 2.23 1.351 4.139 2.509 6.296 3.784z"/><path fill="#393F41" d="M679.008 410.806c-4.838 4.469-4.838 4.469-10.517 1.841-.508.378-.761.819-1.104 1.497 4.212 2.971 8.508 5.556 12.632-.479-.126-.985-.474-1.855-1.011-2.859zM666.518 415.396c.23-.082.429-.332.722-.806-.189.066-.473.352-.722.806z"/><path fill="#D3CBC3" d="M700.302 453.295c-5.982-.451-11.759-.677-17.536-.805-.649-.016-1.313.522-1.969.806l.539 1.32c1.466.593 2.899 1.564 4.406 1.703 3.791.347 7.619.462 11.426.373 1.717-.041 3.766-.412 3.134-3.397zM679.605 443.52c.812.956 1.573 2.128 2.396 2.175 3.643.206 7.302.089 11.606.089-.586-1.421-1.007-3.271-1.397-3.266-4.211.064-8.419.421-12.605 1.002z"/><path fill="#885141" d="M574.659 115.779c3.683.434 4.46-1.073 3.781-4.316-.746-3.568.507-6.826 3.262-9.061 1.058-.859 2.979-.613 5.812-1.091-1.953-1.831-3.194-3.897-4.793-4.238-1.585-.338-4.152.548-5.16 1.823-1.369 1.736-1.679 4.346-2.421 6.589-.479 1.454-.851 2.949-1.392 4.378-.791 2.088-1.701 4.134.911 5.916z"/></svg>