<?xml version="1.0" encoding="utf-8"?>
<!-- Generator: Adobe Illustrator 16.0.0, SVG Export Plug-In . SVG Version: 6.00 Build 0)  -->
<!DOCTYPE svg PUBLIC "-//W3C//DTD SVG 1.1//EN" "http://www.w3.org/Graphics/SVG/1.1/DTD/svg11.dtd">
<svg version="1.1" id="Layer_1" xmlns="http://www.w3.org/2000/svg" xmlns:xlink="http://www.w3.org/1999/xlink" x="0px" y="0px"
	 width="1224px" height="389px" viewBox="0 0 1224 389" enable-background="new 0 0 1224 389" xml:space="preserve">
<path id="XMLID_2339_" fill="#F7941E" d="M761.925,294.726c-130.034,19.695-281.664-1.391-403.899-50.039
	c-69.317-27.584-133.27-68.599-193.107-113.645c-30.986-23.325-60.643-47.914-89.221-74.275
	c-8.298-7.655-36.476-46.296-47.443-42.638c-36.894,12.313,88.468,127.773,102.83,139.21
	c60.729,48.352,124.681,94.318,195.321,125.895c118.496,52.965,259.803,87.244,389.347,78.088
	c75.429-5.331,151.079-9.861,224.579-32.339c30.91-9.454,61.038-21.854,89.688-37.111c20.27-10.797,40.755-22.358,59.55-35.737
	c13.92-9.906,26.86-29.972,41.56-36.974c1.58,29.594-22.81,61.534-23.389,92.294c-0.69,36.578,24.643,20.747,36.594-0.222
	c19.018-33.373,32.444-69.729,47.43-105.101c12.771-30.146,36.17-65.503,4.498-89.071c-27.809-20.696-64.305-30.728-95.33-44.773
	c-20.746-9.394-61.167-40.857-84.469-26.731c-72.822,44.141,107.591,85.192,118.704,93.542c-9.428,9.742-24.29,15.281-35.362,23.355
	c-16.015,11.678-30.232,25.594-46.311,37.211c-30.32,21.901-63.949,41.021-97.871,56.301
	C896.792,278.462,826.031,294.213,761.925,294.726C714.88,301.848,771.191,294.649,761.925,294.726z"/>
</svg>
