<svg version="1.1" id="Layer_1" xmlns="http://www.w3.org/2000/svg" xmlns:xlink="http://www.w3.org/1999/xlink" x="0px" y="0px"
	 width="100%" viewBox="0 0 512 512" enable-background="new 0 0 512 512" xml:space="preserve">
<path fill="#fff" opacity=".2" stroke="#fff" stroke-width="7"
	d="
M172.333893,390.000061 
	C172.337036,404.166748 172.575134,417.839508 172.222916,431.497009 
	C172.088913,436.693085 173.820572,437.895325 178.770096,437.887451 
	C266.436523,437.747803 354.103210,437.782196 441.769836,437.778198 
	C450.051147,437.777802 450.060913,437.775116 450.094177,446.049957 
	C450.107574,449.382965 450.067444,452.716187 450.052094,456.049316 
	C450.038788,458.934845 448.621155,460.330139 445.707031,460.221893 
	C444.376068,460.172455 443.040955,460.243317 441.707733,460.243225 
	C347.207764,460.236328 252.707794,460.228729 158.207825,460.217468 
	C150.674454,460.216583 150.668213,460.204163 150.667694,452.522278 
	C150.663010,382.688965 150.662735,312.855652 150.654343,243.022354 
	C150.653534,236.256210 150.632248,236.235367 143.736588,236.231949 
	C119.236595,236.219757 94.735855,236.122650 70.237274,236.307571 
	C65.494682,236.343353 63.818596,234.902695 63.852829,230.056030 
	C64.032913,204.557343 63.799129,179.055817 63.961285,153.556885 
	C64.267479,105.406609 94.258659,67.425995 140.867416,56.127316 
	C147.315704,54.564148 153.929626,53.654907 160.622833,53.657825 
	C254.789230,53.698891 348.955627,53.727104 443.122009,53.764256 
	C449.773560,53.766880 450.078491,54.043827 450.079102,60.893379 
	C450.089142,177.559982 450.060547,294.226624 450.166748,410.893127 
	C450.171204,415.797943 448.886597,418.082031 443.699127,417.382202 
	C438.652954,416.701385 432.254852,419.591003 428.806122,416.030060 
	C425.587189,412.706451 427.735474,406.463959 427.732330,401.524811 
	C427.665222,295.524872 427.678650,189.524887 427.675873,83.524910 
	C427.675659,76.259575 427.673584,76.242287 420.268860,76.241776 
	C339.768890,76.236168 259.268921,76.235695 178.768967,76.236351 
	C172.357758,76.236404 172.348877,76.245125 172.348450,83.002159 
	C172.342056,185.168121 172.338150,287.334106 172.333893,390.000061 
M119.462341,88.976799 
	C100.157150,102.628220 88.116158,121.108734 86.646172,144.695328 
	C85.301636,166.268890 86.380402,187.991547 86.300629,209.648163 
	C86.289635,212.631668 87.367783,213.819748 90.383621,213.807465 
	C109.041603,213.731537 127.700195,213.715378 146.358109,213.793549 
	C149.605804,213.807159 150.701843,212.562592 150.696579,209.353577 
	C150.626572,166.706146 150.623947,124.058556 150.687241,81.411125 
	C150.693024,77.518272 148.965851,76.943840 145.662018,77.705132 
	C136.476868,79.821625 127.988136,83.520836 119.462341,88.976799 
z"/>
<path fill="#fff" opacity=".2" stroke="#fff" stroke-width="7"
	d="
M377.522736,196.563568 
	C380.740143,199.726700 383.575745,202.796722 386.701630,205.535416 
	C389.518494,208.003342 389.295563,209.776505 386.710205,212.414474 
	C375.172485,224.186935 363.881256,236.200378 352.427704,248.056000 
	C328.015137,273.325684 303.505127,298.501709 279.181244,323.856293 
	C276.030853,327.140167 274.166809,327.194275 270.838928,323.981415 
	C252.272049,306.056000 233.513870,288.327026 214.678040,270.683624 
	C211.598907,267.799438 210.840378,265.739868 214.346893,262.713654 
	C217.232147,260.223602 219.871506,257.378967 222.260880,254.403214 
	C224.759811,251.291046 226.674973,251.428802 229.489410,254.135773 
	C242.450516,266.601990 255.577713,278.895569 268.648987,291.247223 
	C270.444641,292.944000 272.260773,294.619080 273.508362,295.782806 
	C280.577942,289.179657 287.623047,283.106934 294.089325,276.470306 
	C319.770966,250.112122 345.284851,223.590424 370.815063,197.085175 
	C372.890808,194.930130 374.717896,193.245346 377.522736,196.563568 
z"/>
</svg>