<svg version="1.1" id="Layer_1" xmlns="http://www.w3.org/2000/svg" xmlns:xlink="http://www.w3.org/1999/xlink" x="0px" y="0px"
	 width="100%" viewBox="0 0 800 800" enable-background="new 0 0 800 800" xml:space="preserve">

<path fill="#58DD00" opacity="1.000000" stroke="none" 
	d="
M1.000001,645.468628 
	C58.643330,650.266785 116.368599,654.775757 173.908661,660.997498 
	C241.699051,668.327576 308.947449,679.472290 375.641174,693.794250 
	C376.440704,693.965942 377.294159,693.886536 378.805420,694.233398 
	C380.623962,694.750305 381.768005,694.919922 382.893860,695.171265 
	C424.801025,704.524475 466.465851,714.826843 507.436127,727.739990 
	C553.138916,742.144714 597.830811,759.102966 639.996399,782.105591 
	C650.608582,787.894775 660.680054,794.675110 671.000000,801.000000 
	C447.785004,801.000000 224.569992,801.000000 1.000000,801.000000 
	C1.000000,749.312988 1.000000,697.625122 1.000001,645.468628 
z"/>
<path fill="#3C9203" opacity="1.000000" stroke="none" 
	d="
M671.468628,801.000000 
	C660.680054,794.675110 650.608582,787.894775 639.996399,782.105591 
	C597.830811,759.102966 553.138916,742.144714 507.436127,727.739990 
	C466.465851,714.826843 424.801025,704.524475 382.893860,695.171265 
	C381.768005,694.919922 380.623962,694.750305 379.215179,694.269775 
	C395.475983,690.328247 411.916748,686.153564 428.561768,683.087585 
	C474.666565,674.595215 520.734802,665.779297 567.052368,658.608093 
	C602.211060,653.164551 637.670593,649.416260 673.106689,646.089111 
	C702.757202,643.305115 732.551514,641.849304 762.314880,640.565186 
	C774.884705,640.022888 787.538635,641.429688 800.577148,641.975220 
	C801.000000,694.919678 801.000000,747.839294 801.000000,801.000000 
	C757.979431,801.000000 714.958374,801.000000 671.468628,801.000000 
z"/>
</svg>