<?xml version="1.0" encoding="utf-8"?>
<!-- Generator: Adobe Illustrator 16.0.0, SVG Export Plug-In . SVG Version: 6.00 Build 0)  -->
<!DOCTYPE svg PUBLIC "-//W3C//DTD SVG 1.1//EN" "http://www.w3.org/Graphics/SVG/1.1/DTD/svg11.dtd">
<svg version="1.1" id="Layer_1" xmlns="http://www.w3.org/2000/svg" xmlns:xlink="http://www.w3.org/1999/xlink" x="0px" y="0px"
	 width="455px" height="792px" viewBox="338.5 0 455 792" enable-background="new 338.5 0 455 792" xml:space="preserve">
<path fill="#FDFDFC" d="M743.609,538.919c-3.781-8.037-4.736-16.443-5.598-24.88c-1.119-10.979-2.37-21.941-3.398-32.928
	c-0.498-5.32-0.521-10.687-0.953-16.015c-0.244-2.997-0.5-6.093-1.42-8.917c-5.221-16.01-10.461-32.02-16.098-47.881
	c-2.007-5.65-5.14-10.889-7.71-16.214c6.135-4.599,12.748-7.483,20.324-8.81c4.864-0.853,9.478-3.635,13.972-6.007
	c1.603-0.846,3.266-2.875,3.622-4.634c1.478-7.271,1.343-14.562-3.675-20.564c-2.863-3.428-7.063-4.354-11.419-3.715
	c-10.191,1.493-19.834-0.563-29.176-4.567c-0.688-0.295-1.302-1.073-1.68-1.777c-6.04-11.276-12.961-21.859-21.602-31.334
	c-4.226-4.633-7.275-10.356-11.109-15.386c-4.063-5.33-8.261-10.576-12.712-15.569c-3.48-3.905-7.175-7.714-11.24-10.96
	c-11.301-9.021-18.815-21.178-26.704-32.98c-2.677-4.004-3.854-9.018-6.023-13.412c-2.126-4.305-4.71-8.375-6.958-12.622
	c-0.714-1.349-0.936-2.959-1.486-4.41c-2.592-6.815-5.195-13.626-7.848-20.418c-0.849-2.172-1.855-4.28-2.896-6.662
	c19.633-6.312,32.203-18.828,36.288-39.178c2.909,0,5.435,0.455,7.731-0.087c6.451-1.523,10.371-6.166,8.806-13.892
	c-1.81-8.921,1.231-15.76,4.724-23.059c4.146-8.673,7.23-17.651,6.591-27.555c-1.135-17.522-7.599-32.242-21.344-43.368
	c-12.488-10.108-26.468-15.426-42.521-14.436c-13.84,0.854-26.073,5.784-36.655,15.019c-12.313,10.745-18.661,24.687-21.288,40.643
	c-0.372,2.265-0.438,4.663-0.169,6.94c0.563,4.771-0.896,8.879-2.778,13.153c-1.199,2.722-0.924,6.096-1.456,9.151
	c-0.318,1.823-0.465,3.942-1.481,5.321c-2.282,3.096-4.989,5.885-7.656,8.665c-2.72,2.833-5.718,4.92-10.023,4.571
	c-4.423-0.358-8.319,1.883-11.18,4.885c-4.896,5.137-11.179,7.83-16.94,11.463c-1.985,1.253-3.906,2.694-5.609,4.32
	c-6.067,5.793-12.521,11.278-17.876,17.702c-4.44,5.325-7.567,11.792-11.223,17.786c-1.532,2.513-3.208,4.99-4.341,7.691
	c-6.382,15.221-9.869,31.282-13.058,47.432c-1.73,8.761-4.014,17.417-5.516,26.214c-1.058,6.199-1.103,12.57-1.819,18.837
	c-0.741,6.481-1.592,12.959-2.672,19.39c-2.799,16.655-5.596,33.313-8.72,49.907c-1.155,6.132-3.337,12.057-4.839,18.131
	c-1.386,5.609-2.672,11.26-3.675,16.951c-1.511,8.565-3.113,17.146-3.979,25.792c-0.833,8.317-1.098,16.729-1.016,25.096
	c0.07,7.184,5.435,11.211,11.005,13.469c7.438,3.017,10.211,7.855,10.746,15.711c0.446,6.543,2.809,12.932,4.059,19.439
	c1.83,9.545,0.695,19.012-0.896,28.498c-0.719,4.282-0.082,8.817-0.929,13.061c-1.098,5.498-3.021,10.829-4.658,16.209
	c-2.521,8.279-4.762,16.67-7.748,24.773c-3.572,9.694-7.577,19.244-11.815,28.657c-3.926,8.723-7.187,17.523-8.061,27.188
	c-0.275,3.046-1.803,5.957-2.595,8.974c-1.731,6.591-3.082,13.3-5.102,19.793c-2.385,7.67-5.318,15.163-8.009,22.734
	c-1.115,3.135-2.574,6.194-1.308,9.699c0.717,1.982,0.126,3.208-1.826,4.531c-7.572,5.139-14.51,11.037-19.585,18.926
	c-3.267,5.074-3.18,12.781-0.079,18.069c5.839,9.952,14.553,16.452,24.528,21.272c6.188,2.989,12.654,5.487,19.19,7.583
	c4.293,1.376,8.938,1.257,13.008,3.903c6.746,4.387,13.449,9.08,20.744,12.286c7.96,3.498,16.437,6.259,24.956,7.772
	c5.063,0.898,10.666-1.083,15.972-2.077c1.362-0.256,2.962-1.397,3.688-2.608c3.276-5.457,3.979-14.496-0.704-20.257
	c-5.571-6.854-10.104-14.583-15.101-21.925c-0.925-1.357-1.913-2.674-3.113-4.347c7.468-1.966,8.562-7.913,9.233-14.103
	c0.75-6.869,1.061-13.821,2.343-20.585c0.592-3.125,3.07-5.866,4.628-8.816c4.046-7.669,8.458-15.173,11.983-23.085
	c4.983-11.188,9.188-22.735,13.948-34.032c2.975-7.056,6.555-13.849,9.497-20.916c2.665-6.401,4.84-13.015,7.22-19.539
	c0.784-2.152,1.162-4.56,2.352-6.44c4.869-7.695,8.056-16.052,10.19-25.758c2.22,3.128,3.894,5.938,5.99,8.366
	c7.989,9.26,13.66,20.013,19.688,30.584c4.813,8.443,10.44,16.4,15.559,24.669c4.796,7.75,9.324,15.674,14.123,23.423
	c1.878,3.034,3.817,6.188,6.347,8.617c8.029,7.711,13.031,17.553,18.459,27.008c4.389,7.642,6.577,16.239,6.32,25.268
	c-0.261,9.165,0.229,18.213,3.604,26.87c2.147,5.51,5.861,9.094,11.832,9.534c18.051,1.336,34.088-4.468,47.686-16.078
	c7.09-6.053,15.021-9.396,23.332-12.598c9.494-3.658,18.689-8.224,26.19-15.159c4.361-4.033,7.976-9.429,10.483-14.896
	c3.882-8.466-1.767-16.721-11.464-17.559c-5.361-0.464-10.797,0.024-16.176-0.309c-7.365-0.456-14.714-1.231-22.062-1.979
	c-3.195-0.323-4.59-2.127-4.738-5.588c-0.264-6.193-2.11-11.922-5.145-17.444c-1.715-3.123-1.969-7.125-2.668-10.773
	c-2.922-15.248-10.014-28.501-18.61-41.082c-1.744-2.552-3.396-5.281-4.479-8.166c-3.783-10.067-10.015-18.424-17.359-25.918
	c-3.424-3.492-3.835-7.891-3.99-11.999c-0.199-5.247-1.881-9.894-3.167-14.79c-2.048-7.797-3.353-15.794-5.173-23.658
	c-2.379-10.277-6.534-19.807-11.714-28.962c-4.302-7.604-8.155-15.477-12.031-23.32c-2.052-4.158-3.779-8.488-5.521-12.796
	c-0.308-0.762-0.306-2.313,0.146-2.634c6.396-4.533,6.647-11.678,6.809-18.304c0.222-9.182-0.891-18.388-1.098-27.592
	c-0.127-5.703,0.221-11.434,0.613-17.131c0.626-9.079,1.466-18.144,2.22-27.212c0.552-6.648,1.105-13.297,1.721-20.693
	c2.792,2.783,5.563,5.093,7.791,7.858c5.796,7.198,13.462,11.652,21.464,15.578c10.363,5.085,19.523,11.792,28.004,20.563
	c-2.432,0.403-4.461,1.018-6.494,1.032c-12.472,0.095-19.16,15.609-16.51,25.424c2.563,9.498,5.838,18.812,9.159,28.072
	c0.896,2.508,2.702,5.062,4.78,6.664c3.792,2.922,5.057,6.813,6.471,11.144c2.565,7.865,5.659,15.593,9.108,23.104
	c2.901,6.32,6.515,12.317,10.004,18.344c4.139,7.143,5.31,15.174,6.945,23.059c1.566,7.56,3.241,15.126,4.182,22.778
	c0.972,7.894,0.958,15.906,1.671,23.841c0.582,6.487,1.6,12.935,2.422,19.399c1.057,8.29,2.063,16.587,3.184,24.867
	c1.248,9.22,2.607,18.423,3.904,27.634c0.373,2.637,0.908,5.271,1.01,7.922c0.276,7.131,3.635,12.177,8.732,17.024
	c11.498,10.939,25.077,9.53,38.723,7.896c9.854-1.181,12.269-11.73,10.994-18.944c-2.017-11.414-4.494-22.761-6.028-34.24
	c-1.314-9.847-1.479-19.849-2.343-29.766C747.975,557.413,748.68,547.743,743.609,538.919 M616.369,139.15
	c-0.151,2.112,0.26,4.482-0.543,6.295c-5.673,12.827-16.167,19.911-28.907,23.734c-7.366,2.209-8.501,1.483-11.6-3.771
	c-1.911-4.068-5.902-4.575-8.158-0.567c0.975,1.357,1.688,3.087,2.963,4.01c8.488,6.14,13.089,15.144,17.575,24.249
	c0.232,0.474-0.011,1.192,0.342,2.123c2.213,4.555,5.376,8.741,5.127,14.241c-0.034,0.738,0.445,1.548,0.823,2.25
	c3.278,6.098,6.703,12.118,9.849,18.286c2.218,4.352,3.682,9.14,6.18,13.299c3.946,6.576,8.479,12.789,13.187,19.396
	c1.245,1.417,2.385,2.951,3.752,4.233c6.65,6.241,13.65,12.126,19.96,18.703c5.029,5.245,9.32,11.24,13.796,17.018
	c4.491,5.799,8.587,11.927,13.249,17.574c6.924,8.391,12.963,17.358,17.832,27.095c1.645,3.289,4.103,4.89,7.19,6.13
	c3.351,1.346,6.643,2.844,10.364,3.91c7.802,0.298,15.604,0.542,23.401,0.957c1.056,0.056,2.736,0.751,2.978,1.521
	c0.925,2.965,1.381,6.081,2.151,9.836c-9.682,2.835-18.847,5.519-28.383,8.495c-2.001,1.396-4,2.795-6.336,4.552
	c-0.628,0.563-1.201,1.205-1.891,1.674c-3.972,2.698-4.805,5.103-2.994,9.375c3.418,8.069,7.229,15.982,10.285,24.191
	c4.74,12.745,9.114,25.635,13.354,38.563c1.25,3.813,1.741,7.935,2.166,11.96c0.506,4.814,0.369,9.7,0.86,14.519
	c1.052,10.3,2.576,20.554,3.443,30.866c0.853,10.118,2.104,20.028,6.404,29.377c1.68,3.651,3.191,7.628,3.617,11.586
	c1.305,12.123,2.318,24.295,2.93,36.476c0.714,14.233,2.492,28.238,6.368,41.953c0.881,3.118-0.771,6.435-3.993,6.837
	c-5.289,0.66-10.676,0.527-16.561,0.597c-6.434-0.515-11.103-4.365-15.597-8.549c-3.789-3.526-3.185-8.494-3.899-12.945
	c-1.188-7.401-1.941-14.874-2.935-22.31c-0.407-3.052-1.063-6.069-1.428-9.127c-0.795-6.639-0.995-13.391-2.303-19.918
	c-2.295-11.448-3.238-22.971-3.51-34.604c-0.097-4.086-0.271-8.212-0.923-12.231c-1.153-7.107-2.532-14.188-4.13-21.209
	c-1.979-8.712-4.277-17.35-6.895-26.268c-0.83-1.555-1.619-3.132-2.5-4.655c-2.56-4.426-5.483-8.668-7.657-13.28
	c-3.232-6.864-6.039-13.944-8.805-21.024c-0.663-1.698-0.447-3.753-0.896-6.081c-2.258-4.162-4.516-8.323-7.291-12.518
	c-1.829-2.103-4.19-3.937-5.371-6.365c-2.072-4.271-3.568-8.856-5.029-13.403c-1.2-3.734-2.139-7.573-2.938-11.422
	c-0.854-4.124,3.041-11.55,6.521-12.136c5.815-0.982,11.718-1.441,17.543-2.376c1.69-0.271,3.248-1.415,4.735-2.762
	c-0.117-5.949-3.721-9.736-7.72-13.449c-9.063-8.412-18.427-16.385-29.776-21.44c-10.446-4.655-18.172-12.651-26.029-20.712
	c-4.665-4.784-10.411-8.476-15.942-12.233c-2.216-0.965-2.707,0.25-2.7,2.18c0.019,4.027,0.196,8.066-0.031,12.081
	c-0.611,10.815-1.405,21.62-2.12,32.431c-0.493,7.444-0.961,14.893-1.492,22.335c-0.039,0.541-0.502,1.051-0.706,2.268
	c-0.021,4.452-0.041,8.904,0.04,13.957c0.12,2.217,0.313,4.434,0.333,6.65c0.014,1.552-0.355,3.109-0.308,4.658
	c0.174,5.556,0.283,11.122,0.74,16.655c0.35,4.23-1.663,7.141-4.713,9.218c-4.598,3.131-4.555,6.005-2.685,10.029
	c0.528,1.168,1.119,2.313,1.572,3.511c0.941,2.493,1.572,5.139,2.75,7.505c4.063,8.156,8.336,16.204,12.47,24.323
	c2.666,5.237,4.986,10.671,7.891,15.763c3.602,6.316,5.258,13.156,6.445,20.229c0.825,4.925,1.389,9.984,2.969,14.67
	c2.629,7.795,4.404,15.621,5.116,23.866c0.372,4.307,1.967,8.52,5.738,11.9c3.967,3.556,7.154,8.202,9.996,12.811
	c2.732,4.43,4.301,9.589,6.892,14.124c4.475,7.836,9.424,15.388,14.026,23.149c4.438,7.482,6.597,15.747,7.865,24.349
	c0.49,3.323,1.438,6.724,2.905,9.718c2.501,5.108,5.329,9.961,3.543,16.024c-0.251,0.854-0.265,2.26,0.239,2.79
	c3.161,3.323,5.938,7.562,10.819,8.177c8.296,1.047,16.649,1.696,24.996,2.239c4.659,0.303,9.355,0.009,14.033,0.066
	c4.451,0.057,6.23,2.438,4.187,6.41c-1.711,3.324-3.928,6.706-6.732,9.054c-7.29,6.097-15.68,10.406-24.482,13.893
	c-5.682,2.25-11.509,4.316-16.811,7.312c-3.934,2.225-6.996,5.991-10.68,8.747c-9.687,7.246-20.929,10.405-32.578,12.311
	c-4.92,0.805-8.355-1.439-9.785-6.433c-3.207-11.19-1.957-22.771-2.834-34.729c-0.256-0.889-0.514-1.778-0.797-3.221
	c-1.433-2.923-3.26-5.719-4.217-8.793c-2.679-8.605-8.26-15.479-12.87-22.896c-2.561-4.116-6.531-7.298-9.307-11.303
	c-4.414-6.372-8.355-13.084-12.505-19.647c-7.149-11.313-14.639-22.424-21.361-33.996c-6.334-10.905-12-22.169-20.299-31.807
	c-4.523-5.255-8.229-11.231-12.539-16.69c-2.125-2.693-5.158-2.325-6.661,0.607c-1.06,2.067-1.692,4.364-2.479,6.572
	c-2.112,5.93-4.021,11.942-6.355,17.78c-2.47,6.172-5.563,12.087-7.963,18.282c-2.022,5.216-2.6,11.169-5.302,15.919
	c-6.125,10.772-10.3,22.343-14.909,33.754c-2.229,5.519-4.164,11.164-6.536,16.615c-1.912,4.396-4.288,8.578-6.439,12.866
	c-2.051,4.09-3.938,8.271-6.154,12.269c-2.106,3.803-5.407,7.146-6.63,11.179c-1.793,5.925-2.279,12.271-3.179,18.461
	c-0.581,3.989-0.824,8.03-1.442,12.013c-0.07,0.462-1.709,1.153-2.398,0.951c-3.201-0.938-6.323-2.156-10.391-3.599
	c0.346,4.36-0.466,8.979,1.213,12.292c3.863,7.625,8.797,14.71,13.568,21.826c2.899,4.323,6.32,8.284,9.48,12.431
	c2.496,3.276,2.402,5.231-1.363,6.817c-3.004,1.266-6.694,2.008-9.855,1.51c-13.037-2.054-24.406-8.399-35.414-15.455
	c-5.424-3.475-10.781-6.68-17.443-7.69c-5.709-0.864-11.353-2.985-16.703-5.317c-8.454-3.687-15.654-9.425-22.132-16.048
	c-4.124-4.216-4.524-7.694-0.925-12.364c2.396-3.109,5.444-5.699,8.251-8.993c0.508-0.264,1.017-0.526,1.928-0.908
	c0.305-0.286,0.61-0.573,0.96-1.327c0.507-0.25,1.015-0.501,1.923-0.869c0.305-0.285,0.608-0.57,0.959-1.326
	c0.514-0.248,1.026-0.496,1.938-0.864c0.298-0.29,0.596-0.581,0.938-1.337c0.502-0.254,1.004-0.509,1.916-0.883
	c0.305-0.294,0.609-0.587,0.959-1.338c0.495-0.254,0.99-0.507,1.894-0.887c0.312-0.291,0.625-0.581,0.987-1.331
	c0.504-0.241,1.007-0.482,1.848-0.806c0.227-0.108,0.363-0.289,0.351-1.063c0.733-1.142,1.465-2.28,1.965-3.877
	c-1.194-0.713-2.561-1.242-3.53-2.193c-0.894-0.876-2.094-2.381-1.88-3.301c0.678-2.926,1.972-5.699,2.994-8.543
	c2.22-6.172,4.628-12.281,6.556-18.547c1.407-4.565,2.104-9.354,3.231-14.017c1.377-5.694,2.889-11.354,4.314-17.038
	c0.97-3.866,1.525-7.891,2.932-11.582c1.784-4.688,4.41-9.034,6.363-13.664c2.583-6.122,4.832-12.391,7.294-18.566
	c1.354-3.396,3.173-6.634,4.21-10.118c1.705-5.729,2.708-11.677,4.451-17.393c1.599-5.243,4.583-10.151,5.542-15.475
	c1.794-9.941,2.827-20.053,3.661-30.138c0.521-6.31,0.381-12.716,0.01-19.046c-0.307-5.208-0.583-10.673-2.323-15.479
	c-2.506-6.922-2.979-14.012-4.072-21.514c-1.275-1.05-2.448-2.281-3.847-3.114c-4.35-2.591-8.948-4.786-13.104-7.654
	c-1.558-1.074-2.87-3.512-3.046-5.444c-0.313-3.44,0.234-6.979,0.584-10.46c0.612-6.088,1.271-12.171,2.054-18.236
	c0.641-4.978,1.431-9.938,2.259-14.886c1.313-7.835,2.545-15.698,5.743-23.583c0.488-1.739,1.115-3.451,1.441-5.222
	c1.652-8.982,3.227-17.98,4.946-27.586c1.952-10.489,4.035-20.957,5.805-31.479c1.002-5.955,1.527-11.996,2.198-18.006
	c0.749-6.723,0.985-13.539,2.212-20.167c2.622-14.172,5.45-28.321,8.761-42.34c2.038-8.636,4.588-17.241,7.903-25.442
	c2.75-6.799,6.941-12.995,10.521-19.443c3.438-6.194,7.708-11.687,13.252-16.086c2.23-1.771,4.418-3.603,6.688-5.32
	c3.62-2.736,7.196-5.553,10.973-8.05c3.503-2.317,8.445-3.403,10.616-6.558c3.772-5.481,8.275-6.491,14.5-5.92
	c2.988-2.107,6.46-3.761,8.861-6.419c4.682-5.185,8.766-10.932,13.064-17.083c-0.177-2.711-0.86-5.517-0.399-8.11
	c0.571-3.214,2.012-6.286,3.244-9.35c0.456-1.135,1.385-2.073,2.261-3.539c-0.509-3.382-1.807-6.868-1.391-10.127
	c1.807-14.165,7.596-26.334,18.385-35.876c9.004-7.963,19.432-12.116,31.205-12.886c12.733-0.833,23.75,3.867,33.736,11.458
	c13.069,9.933,19.211,23.475,19.369,39.89c0.068,7.231-2.775,13.784-5.923,20.047c-4.239,8.441-8.045,16.764-5.557,26.691
	c1.055,4.209-0.012,4.675-4.283,4.687c-3,0.009-6.328-2.749-9.371,1.123c-1.669,2.76-3.338,5.521-4.85,8.829L616.369,139.15z"/>
<path fill="#0F0909" d="M621.438,684.464c0.732,11.407-0.518,22.985,2.689,34.177c1.431,4.993,4.865,7.236,9.785,6.434
	c11.65-1.905,22.893-5.064,32.578-12.311c3.685-2.756,6.746-6.522,10.682-8.747c5.301-2.995,11.127-5.062,16.811-7.312
	c8.802-3.486,17.19-7.797,24.48-13.894c2.807-2.347,5.022-5.729,6.732-9.053c2.045-3.973,0.267-6.354-4.185-6.41
	c-4.68-0.059-9.375,0.235-14.035-0.067c-8.347-0.542-16.697-1.192-24.995-2.238c-4.882-0.616-7.658-4.854-10.82-8.177
	c-0.504-0.53-0.49-1.937-0.238-2.791c1.785-6.063-1.043-10.915-3.544-16.023c-1.467-2.995-2.413-6.396-2.905-9.719
	c-1.27-8.601-3.427-16.864-7.864-24.348c-4.603-7.763-9.554-15.314-14.027-23.149c-2.59-4.535-4.158-9.695-6.889-14.124
	c-2.845-4.608-6.031-9.255-9.998-12.811c-3.771-3.383-5.367-7.595-5.739-11.9c-0.712-8.246-2.487-16.072-5.116-23.866
	c-1.58-4.686-2.143-9.745-2.969-14.671c-1.188-7.073-2.843-13.912-6.445-20.229c-2.902-5.093-5.226-10.524-7.891-15.762
	c-4.132-8.121-8.406-16.168-12.469-24.323c-1.18-2.366-1.811-5.013-2.75-7.506c-0.451-1.197-1.043-2.342-1.918-3.384
	c-3.943,6.003-7.25,12.094-11.241,17.674c-2.38,3.327-5.416,6.686-8.917,8.529c-4.245,2.236-9.281,3.966-13.996,4.024
	c-13.109,0.161-26.238-0.498-39.343-1.165c-4.979-0.253-9.986-1.083-14.849-2.23c-8.771-2.07-17.398-4.758-26.166-6.854
	c-8.819-2.108-17.825-3.46-26.564-5.85c-3.897-1.063-7.542-2.076-11.519-1.188c0.842,7.116,1.315,14.206,3.822,21.127
	c1.74,4.806,2.016,10.27,2.323,15.479c0.372,6.33,0.512,12.737-0.009,19.046c-0.833,10.085-1.867,20.195-3.661,30.139
	c-0.959,5.32-3.943,10.229-5.542,15.475c-1.743,5.715-2.745,11.662-4.451,17.393c-1.037,3.484-2.856,6.723-4.209,10.117
	c-2.462,6.178-4.711,12.444-7.294,18.567c-1.954,4.629-4.58,8.977-6.364,13.664c-1.406,3.69-1.962,7.715-2.932,11.582
	c-1.427,5.683-2.938,11.344-4.314,17.038c-1.127,4.661-1.825,9.449-3.231,14.017c-1.927,6.265-4.335,12.375-6.555,18.545
	c-1.021,2.845-2.316,5.619-2.994,8.544c-0.214,0.92,0.987,2.424,1.88,3.302c0.969,0.949,2.336,1.479,3.896,2.471
	c8.589,5.169,16.811,10.062,25.298,14.956c4.827,2.082,9.388,4.163,13.938,6.239c-1.509,0.347-3.224,0.695-4.913,1.137
	c-7.509,1.954-14.626,1.809-20.353-4.421c-3.708-4.033-7.174-8.296-10.965-12.577c-1.615-1.884-3.043-3.501-5.281-1.212
	c-0.044,0.252-0.18,0.432-0.627,0.793c-0.706,0.505-1.191,0.759-1.676,1.013c-0.313,0.29-0.625,0.581-1.194,1.146
	c-0.731,0.539-1.207,0.804-1.684,1.068c-0.305,0.293-0.609,0.587-1.17,1.152c-0.739,0.54-1.22,0.808-1.703,1.076
	c-0.298,0.291-0.596,0.581-1.15,1.146c-0.746,0.536-1.237,0.799-1.728,1.063c-0.305,0.284-0.608,0.568-1.169,1.126
	c-0.741,0.537-1.226,0.802-1.712,1.065c-0.305,0.286-0.61,0.572-1.172,1.133c-0.746,0.552-1.235,0.829-1.723,1.107
	c-2.756,2.821-5.804,5.411-8.199,8.521c-3.6,4.67-3.198,8.148,0.924,12.363c6.479,6.623,13.679,12.362,22.133,16.048
	c5.349,2.332,10.992,4.453,16.702,5.318c6.662,1.011,12.021,4.216,17.444,7.69c11.008,7.056,22.376,13.4,35.413,15.455
	c3.163,0.498,6.854-0.244,9.856-1.51c3.769-1.587,3.86-3.542,1.364-6.817c-3.16-4.146-6.581-8.106-9.481-12.432
	c-4.771-7.114-9.705-14.199-13.567-21.825c-1.679-3.313-0.867-7.932-1.213-12.292c4.066,1.441,7.189,2.658,10.391,3.599
	c0.688,0.202,2.328-0.489,2.398-0.951c0.618-3.98,0.862-8.021,1.442-12.013c0.899-6.189,1.384-12.536,3.179-18.461
	c1.223-4.033,4.522-7.376,6.631-11.18c2.213-3.994,4.103-8.178,6.153-12.268c2.151-4.288,4.526-8.472,6.438-12.866
	c2.372-5.452,4.31-11.098,6.538-16.616c4.607-11.411,8.783-22.979,14.908-33.754c2.702-4.75,3.278-10.704,5.301-15.918
	c2.401-6.196,5.494-12.112,7.964-18.283c2.335-5.837,4.244-11.851,6.355-17.779c0.786-2.209,1.421-4.505,2.479-6.572
	c1.502-2.935,4.535-3.302,6.66-0.609c4.31,5.46,8.015,11.438,12.54,16.691c8.298,9.638,13.964,20.899,20.298,31.809
	c6.721,11.572,14.21,22.683,21.36,33.995c4.148,6.563,8.09,13.275,12.504,19.647c2.774,4.005,6.747,7.187,9.307,11.303
	c4.61,7.416,10.192,14.289,12.871,22.895c0.957,3.075,2.784,5.87,4.532,9.163c5.581-1,11.13-1.711,16.044-3.896
	c7.003-3.114,13.537-7.32,20.291-11.025c0.412-0.226,0.988-0.143,1.681-0.228c-1.21,2.567-2.19,4.86-3.347,7.058
	c-2.279,4.326-5.495,7.855-10.337,8.777c-5.004,0.953-10.149,1.119-15.229,1.669c-2.83,0.307-5.652,0.694-8.477,1.048V684.464
	L621.438,684.464z"/>
<path fill="#F4690A" d="M427.679,445.009c4.104-0.692,7.747,0.318,11.645,1.383c8.739,2.39,17.744,3.74,26.563,5.85
	c8.767,2.096,17.396,4.782,26.167,6.854c4.862,1.147,9.87,1.979,14.848,2.23c13.104,0.667,26.233,1.327,39.343,1.165
	c4.716-0.06,9.75-1.789,13.996-4.024c3.502-1.845,6.539-5.202,8.918-8.528c3.992-5.581,7.298-11.673,10.999-17.777
	c-1.282-4.048-1.326-6.922,3.271-10.053c3.053-2.076,5.063-4.985,4.714-9.218c-0.458-5.533-0.567-11.1-0.739-16.654
	c-0.048-1.548,0.32-3.107,0.308-4.659c-0.019-2.218-0.215-4.435-0.68-6.967c-1.865-0.057-3.551-0.143-4.881,0.519
	c-9.001,4.464-18.81,4.003-28.371,5.016c-11.953,1.267-23.515-1.999-35.141-3.728c-15.074-2.241-30.052-5.434-44.892-8.994
	c-15.091-3.62-29.967-8.176-44.931-12.345c-3.554-0.99-7.083-2.068-10.624-3.105c-3.192,7.354-4.425,15.216-5.738,23.051
	c-0.828,4.948-1.618,9.908-2.259,14.886c-0.782,6.065-1.441,12.148-2.054,18.235c-0.349,3.48-0.896,7.021-0.583,10.46
	c0.176,1.935,1.488,4.372,3.045,5.446c4.156,2.868,8.755,5.063,13.104,7.653c1.399,0.834,2.571,2.063,3.972,3.308h-0.001V445.009z"
	/>
<path fill="#C1B7AC" d="M418.197,361.702c3.539,1.304,7.066,2.382,10.621,3.372c14.964,4.168,29.84,8.724,44.931,12.346
	c14.84,3.561,29.816,6.752,44.892,8.993c11.625,1.729,23.188,4.993,35.141,3.728c9.562-1.013,19.369-0.552,28.371-5.016
	c1.33-0.66,3.015-0.574,4.831-0.818c0.314-4.437,0.335-8.889,0.038-13.67c-1.588-0.596-2.854-0.877-4.129-1.128
	c-4.289-0.845-5.27-3.689-4.78-7.714c0.438-3.611,0.52-7.267,0.792-10.898c1.18-15.74,2.301-31.485,3.602-47.216
	c0.427-5.171,1.331-10.302,1.805-15.593c-0.852-1.962-1.491-3.782-2.429-5.649c-2.322,0.174-4.346,0.395-6.41,0.933
	c-0.182,1.284-0.273,2.261-0.468,3.216c-4.114,20.256-8.23,40.51-12.364,60.762c-1.11,5.446-2.279,10.882-3.433,16.366
	c-30.956-4.932-61.421-9.786-92.031-14.663c2.168-15.171,4.188-29.862,6.384-44.528c3.391-22.625,6.324-45.345,10.595-67.798
	c2.351-12.359,6.796-24.339,10.729-36.343c6.113-18.662,20.583-28.635,37.569-35.027c8.327-3.133,17.415-4.163,26.129-6.407
	c-2.979-6.257-7.656-9.448-14.519-9.195c-1.207,0.552-2.244,1.245-3.231,1.179c-6.493-0.434-12.356,2.054-17.872,4.766
	c-8.034,3.95-16.543,7.768-23.191,13.601c-17.277,15.163-28.912,34.583-36.282,56.512c-8.41,25.023-13.533,50.912-18.685,76.773
	c-2.131,10.703-3.93,21.475-6.027,32.186c-0.239,1.218-1.561,3.259-2.182,3.186c-3.63-0.43-7.429-0.878-10.674-2.411
	c-1.185-0.56-1.006-4.113-1.451-6.302c-1.601,8.993-3.175,17.991-4.828,26.974c-0.326,1.771-0.953,3.482-1.443,5.487h0.002V361.702z
	"/>
<path fill="#352730" d="M575.508,283.052c2.025-0.221,4.049-0.441,6.503-0.858c2.458-1.185,4.397-2.478,6.525-3.108
	c7.707-2.283,15.464-4.398,23.229-6.469c5.446-1.452,8.406-5.583,11.019-10.161c-4.285-6.366-8.816-12.579-12.765-19.154
	c-2.495-4.16-3.959-8.948-6.179-13.299c-3.145-6.167-6.571-12.188-9.849-18.286c-0.377-0.701-0.856-1.512-0.823-2.25
	c0.25-5.5-2.915-9.687-5.574-14.405c-5.075-4.197-9.636-8.313-14.343-12.248c-9.819-8.208-20.834-10.41-33.246-7.461
	c-9.094,2.161-17.611,5.717-25.523,10.412c-8.811,5.227-16.394,12.167-18.081,23.281c-2.214,14.577-2.586,29.275,2.2,43.348
	c2.434,7.156,8.271,12.16,15.389,14.995c4.545,1.81,9.188,3.369,13.823,4.933c2.146,0.723,4.348,1.524,6.566,1.696
	c3.744,0.29,6.579,1.66,8.652,4.964c2.507,3.999,6.121,6.19,10.932,5.501c4.349-0.622,8.669-1.431,12.997-2.193
	C569.885,281.775,572.841,280.664,575.508,283.052L575.508,283.052z"/>
<path fill="#F5690B" d="M575.472,283.367c-2.625-2.705-5.582-1.593-8.503-1.079c-4.328,0.761-8.649,1.571-12.998,2.193
	c-4.81,0.688-8.423-1.503-10.93-5.502c-2.072-3.304-4.909-4.674-8.652-4.963c-2.22-0.172-4.423-0.973-6.566-1.697
	c-4.634-1.563-9.279-3.123-13.823-4.933c-7.118-2.835-12.956-7.838-15.39-14.995c-4.787-14.072-4.413-28.77-2.199-43.347
	c1.687-11.114,9.27-18.055,18.08-23.281c7.913-4.695,16.429-8.251,25.522-10.412c12.413-2.949,23.428-0.748,33.247,7.461
	c4.707,3.935,9.27,8.05,14.155,12.083c0.281-0.604,0.526-1.322,0.293-1.796c-4.486-9.104-9.089-18.109-17.575-24.249
	c-1.275-0.923-1.99-2.653-3.279-4.313c-2.959-1.979-5.599-3.655-8.238-5.331c-8.743,1.981-17.832,3.011-26.158,6.145
	c-16.986,6.391-31.456,16.365-37.569,35.027c-3.933,12.004-8.378,23.984-10.729,36.343c-4.271,22.454-7.204,45.174-10.593,67.798
	c-2.199,14.665-4.217,29.357-6.387,44.528c30.607,4.877,61.074,9.731,92.032,14.664c1.152-5.486,2.32-10.921,3.433-16.366
	c4.134-20.251,8.252-40.507,12.363-60.762c0.195-0.956,0.288-1.932,0.469-3.216H575.472z"/>
<path fill="#C4D9EE" d="M621.502,129.874c2.764-3.422,6.091-0.666,9.09-0.674c4.272-0.012,5.339-0.477,4.283-4.687
	c-2.488-9.927,1.316-18.249,5.559-26.691c3.146-6.263,5.989-12.816,5.921-20.047c-0.157-16.415-6.298-29.957-19.367-39.89
	c-9.986-7.59-21.004-12.29-33.737-11.458c-11.773,0.771-22.202,4.923-31.206,12.886c-10.789,9.542-16.577,21.711-18.384,35.876
	c-0.417,3.259,0.881,6.746,1.555,10.478c5.498,1.136,10.827,2.437,16.174,2.52c3.403,0.053,6.801-1.863,10.261-2.604
	c5.76-1.234,11.706-2.145,16.967,1.357c7.317,4.871,11.257,12.15,12.964,21.048c3.896,3.543,8.01,6.543,11.403,10.231
	c3.231,3.511,5.711,7.741,8.521,11.655H621.502z"/>
<path fill="#F69C25" d="M424.525,328.938c0.384,2.493,0.205,6.048,1.392,6.607c3.244,1.533,7.042,1.98,10.672,2.41
	c0.622,0.074,1.943-1.967,2.183-3.187c2.099-10.709,3.896-21.48,6.027-32.185c5.151-25.861,10.274-51.749,18.686-76.772
	c7.371-21.93,19.004-41.35,36.281-56.512c6.649-5.834,15.158-9.651,23.19-13.601c5.516-2.712,11.38-5.199,17.872-4.766
	c0.988,0.066,2.025-0.626,3.218-1.469c0.353-3.571-1.159-5.248-3.812-6.669c-7.672-4.111-15.174-8.552-22.742-12.863
	c-5.7-0.682-10.206,0.328-13.977,5.809c-2.171,3.155-7.113,4.241-10.616,6.558c-3.776,2.497-7.353,5.313-10.973,8.05
	c-2.271,1.717-4.458,3.549-6.688,5.32c-5.544,4.399-9.814,9.893-13.252,16.086c-3.581,6.448-7.771,12.645-10.521,19.443
	c-3.315,8.201-5.866,16.806-7.905,25.442c-3.31,14.019-6.138,28.167-8.759,42.34c-1.228,6.628-1.465,13.443-2.213,20.167
	c-0.67,6.01-1.196,12.051-2.198,18.006C428.62,307.675,426.537,318.142,424.525,328.938L424.525,328.938z"/>
<path fill="#B97252" d="M623,262.577c-2.824,4.458-5.785,8.589-11.229,10.041c-7.768,2.07-15.523,4.186-23.231,6.469
	c-2.128,0.631-4.067,1.924-6.229,3.156c0.507,2.063,1.146,3.883,2.291,5.859c3.371-0.379,5.462,1.006,6.738,3.346
	c1.346,2.464,2.231,5.189,3.318,7.8c5.261,4.183,11.007,7.874,15.672,12.659c7.858,8.06,15.582,16.057,26.029,20.711
	c11.351,5.058,20.714,13.028,29.776,21.441c3.998,3.711,7.604,7.499,8.04,13.814c2.271,0.837,4.198,1.55,6.173,1.729
	c4.754,0.435,9.06,2.021,11.342,6.373c2.657,5.068,6.902,6.137,11.813,6.385c2-1.397,4-2.796,6.26-4.639
	c1.476-5.576,2.01-10.664-0.076-15.752c-0.53-1.294-0.507-2.825-0.735-4.247c-3.318-1.432-6.61-2.93-9.961-4.274
	c-3.09-1.24-5.547-2.841-7.19-6.13c-4.868-9.735-10.909-18.705-17.831-27.094c-4.662-5.647-8.759-11.775-13.25-17.575
	c-4.477-5.778-8.766-11.774-13.797-17.019c-6.308-6.577-13.309-12.461-19.959-18.702C625.597,265.648,624.457,264.115,623,262.577
	 M617.152,299.932c1.545,0.708,3.09,1.417,4.635,2.125c-0.211,0.555-0.422,1.11-0.633,1.665c-1.889-0.547-4.047-0.685-5.592-1.749
	C613.814,300.768,615.164,300.086,617.152,299.932L617.152,299.932z"/>
<path fill="#6292B0" d="M703.333,382.543c-4.741-0.427-8.988-1.495-11.646-6.563c-2.283-4.353-6.587-5.939-11.343-6.373
	c-1.975-0.181-3.901-0.895-6.106-1.43c-1.875,0.68-3.433,1.822-5.121,2.095c-5.826,0.935-11.728,1.395-17.544,2.376
	c-3.479,0.587-7.378,8.012-6.521,12.137c0.8,3.848,1.736,7.687,2.938,11.421c1.461,4.547,2.957,9.133,5.03,13.403
	c1.181,2.43,3.541,4.264,5.927,6.32c1.153-0.094,1.752-0.144,2.371-0.47c-0.031-0.881,0.034-1.527-0.159-2.08
	c-2.745-7.835-5.6-15.632-8.27-23.493c-1.383-4.077,0.025-6.235,4.32-6.396c3.316-0.124,6.664,0.636,9.98,0.505
	c4.955-0.194,7.672,2.37,9.506,6.674c2.229,5.232,4.783,10.324,6.93,15.589c1.535,3.762,2.631,7.709,4.189,11.628
	c1.338,0.855,3.106,1.48,3.354,2.491c0.722,2.963,0.836,6.079,1.307,9.382c3.302,6.884,6.492,13.519,9.66,20.163
	c0.47,0.984,0.854,2.014,1.209,3.047c1.305,3.799,0.365,5.806-3.557,6.021c-5.106,0.283-10.257,0.021-15.37-0.316
	c-0.966-0.063-2.173-1.412-2.689-2.464c-1.438-2.933-2.666-5.983-3.806-9.055c-1.727-4.652-3.307-9.361-5.08-14.239
	c-2.389-1.457-4.646-2.722-6.901-3.986c0.188,1.892-0.027,3.945,0.637,5.645c2.765,7.08,5.572,14.161,8.805,21.024
	c2.172,4.612,5.1,8.854,7.657,13.28c0.88,1.523,1.669,3.103,2.813,4.51c0.291-1.377,0.597-2.737,0.186-3.814
	c-1.269-3.333-0.668-4.598,2.867-4.409c6.254,0.332,12.51,0.805,18.725,1.559c1.203,0.146,2.904,1.658,3.221,2.856
	c1.688,6.421,3.359,12.886,4.372,19.441c1.321,8.565,1.979,17.235,3.028,25.848c0.228,1.866,1.172,3.647,1.354,5.513
	c0.649,6.714,1.11,13.447,1.657,20.172c0.06,0.718,0.186,1.434,0.317,2.142c0.792,4.2,1.839,8.371,2.337,12.606
	c0.714,6.074,1.03,12.197,1.521,18.299c0.02,0.241,0.057,0.482,0.104,0.722c0.947,4.889,2.204,9.739,2.775,14.674
	c0.797,6.897,1.001,13.867,1.625,20.789c0.299,3.327,0.696,6.692,1.535,9.91c1.972,7.571,3.239,14.887-3.641,20.799
	c-0.081,0.07-0.095,0.222-0.139,0.335c5.345-0.201,10.729-0.067,16.02-0.729c3.223-0.401,4.874-3.718,3.994-6.836
	c-3.876-13.715-5.653-27.72-6.368-41.953c-0.61-12.181-1.627-24.353-2.93-36.477c-0.426-3.958-1.938-7.935-3.619-11.586
	c-4.299-9.348-5.551-19.258-6.401-29.376c-0.868-10.313-2.394-20.567-3.444-30.866c-0.491-4.817-0.354-9.703-0.861-14.519
	c-0.424-4.025-0.916-8.148-2.167-11.96c-4.235-12.93-8.61-25.82-13.353-38.563c-3.052-8.209-6.866-16.122-10.284-24.191
	c-1.81-4.272-0.978-6.678,2.992-9.375C701.961,383.927,702.536,383.284,703.333,382.543L703.333,382.543z"/>
<path fill="#152127" d="M727.428,640.758c0.314-0.047,0.328-0.199,0.408-0.269c6.88-5.912,5.611-13.229,3.641-20.799
	c-0.838-3.219-1.236-6.584-1.536-9.91c-0.621-6.923-0.826-13.893-1.623-20.79c-0.571-4.935-1.828-9.785-2.775-14.674
	c-0.047-0.237-0.084-0.479-0.104-0.722c-0.488-6.102-0.807-12.224-1.521-18.298c-0.497-4.236-1.543-8.406-2.335-12.606
	c-0.133-0.709-0.26-1.423-0.317-2.142c-0.547-6.726-1.008-13.458-1.659-20.173c-0.181-1.864-1.125-3.646-1.353-5.513
	c-1.052-8.61-1.707-17.28-3.028-25.846c-1.013-6.558-2.685-13.022-4.372-19.443c-0.315-1.198-2.018-2.711-3.221-2.856
	c-6.216-0.754-12.471-1.227-18.724-1.559c-3.536-0.188-4.138,1.076-2.868,4.409c0.411,1.078,0.104,2.438,0.042,3.939
	c2.076,8.938,4.374,17.576,6.354,26.288c1.598,7.021,2.977,14.102,4.129,21.209c0.652,4.021,0.827,8.146,0.923,12.231
	c0.271,11.635,1.217,23.157,3.51,34.604c1.309,6.526,1.51,13.279,2.304,19.918c0.365,3.057,1.021,6.075,1.427,9.127
	c0.994,7.436,1.746,14.907,2.936,22.31c0.716,4.451,0.11,9.419,3.899,12.946C716.055,636.326,720.725,640.178,727.428,640.758
	 M715.83,609.548c4.298,5.328,7.982-0.323,12.012-1.129c1.303,4.904-3.342,4.528-5.008,6.53c-0.727,0.869-3.371,1.326-4.129,0.699
	c-3.023-2.503-5.68-5.474-8.373-8.363c-0.332-0.355-0.076-1.278-0.093-1.938c0.728,0.077,1.691-0.116,2.137,0.285
	C713.523,606.67,714.438,607.971,715.83,609.548L715.83,609.548z"/>
<path fill="#B77A55" d="M517.759,129.874c7.308,4.367,14.81,8.807,22.48,12.918c2.652,1.421,4.164,3.098,4.004,6.459
	c6.685,0.248,11.362,3.438,14.341,9.695c2.67,1.938,5.309,3.614,8.181,5.348c2.659-3.459,6.649-2.953,8.795,0.951
	c0.832-5.333,1.362-10.51,2.102-15.657c0.1-0.694,1.25-1.231,1.917-2.136c-0.803-4.554-1.612-8.812-2.417-13.07
	c-0.656-3.463-1.308-6.927-2.216-10.432c-4.871-3.072-7.101-8.39-6.043-13.646c0.47-2.34,0.78-4.714,0.949-6.944
	c-4.255,3.052-8.35,5.905-12.326,8.919c-3.824,2.899-8.125,2.376-12.326,1.81c-3.375-0.454-3.372-3.954-4.54-6.346
	c-0.148-0.303-0.449-0.53-0.679-0.792c-4.332,5.514-8.416,11.261-13.101,16.446C524.481,126.057,521.009,127.71,517.759,129.874
	L517.759,129.874z"/>
<path fill="#050407" d="M539.96,106.634c0.246,0.581,0.547,0.807,0.695,1.11c1.169,2.392,1.166,5.892,4.54,6.346
	c4.202,0.566,8.503,1.088,12.327-1.81c3.977-3.014,8.07-5.867,12.355-9.166c1.634-2.49,3.139-4.538,4.398-6.732
	c2.363-4.124,5.943-6.216,9.565-5.383c3.586,0.824,5.364,3.515,5.951,8.649c2.114,2.412,3.969,4.782,6.096,7.184
	c2.045,0.326,3.819,0.619,5.595,0.912c-1.613-8.655-5.551-15.935-12.868-20.805c-5.262-3.502-11.208-2.592-16.968-1.357
	c-3.459,0.741-6.857,2.658-10.261,2.605c-5.346-0.083-10.674-1.384-16.257-2.302c-0.957,0.896-1.885,1.834-2.341,2.969
	c-1.232,3.064-2.673,6.136-3.245,9.35C539.082,100.8,539.767,103.604,539.96,106.634L539.96,106.634z"/>
<path fill="#408571" d="M579.568,147.752c-0.663,0.61-1.814,1.147-1.913,1.841c-0.74,5.147-1.271,10.325-1.908,15.827
	c2.672,5.248,3.807,5.974,11.172,3.764c12.742-3.822,23.235-10.907,28.909-23.734c0.801-1.813,0.391-4.183,0.229-6.656
	c-1.315-1.551-2.393-2.687-3.31-3.942c-1.325-1.812-2.641-3.506-5.321-2.593c-0.534,0.808-0.979,1.408-1.499,2.237
	c-2.102,2.594-4.699,4.671-6.027,7.391c-2.041,4.179-5.125,5.95-9.356,6.163c-2.742,0.139-5.499-0.014-8.523-0.017
	C581.021,147.952,580.295,147.852,579.568,147.752L579.568,147.752z"/>
<path fill="#F46A0D" d="M594.521,299.457c-0.951-2.824-1.837-5.549-3.183-8.013c-1.276-2.339-3.369-3.725-6.524-3.205
	c-0.979,5.136-1.885,10.267-2.313,15.438c-1.3,15.73-2.422,31.476-3.602,47.215c-0.272,3.635-0.354,7.289-0.792,10.899
	c-0.488,4.021,0.492,6.869,4.78,7.714c1.273,0.251,2.541,0.532,4.097,0.782c0.552-0.541,1.017-1.052,1.055-1.593
	c0.531-7.442,0.999-14.891,1.492-22.335c0.715-10.81,1.51-21.614,2.123-32.431c0.227-4.015,0.048-8.054,0.03-12.081
	C591.678,299.92,592.169,298.705,594.521,299.457L594.521,299.457z"/>
<path fill="#6393B1" d="M709.148,357.544c0.028,1.604,0.004,3.136,0.534,4.43c2.086,5.089,1.552,10.177,0.265,15.604
	c9.089-2.385,18.254-5.067,27.936-7.902c-0.772-3.755-1.229-6.871-2.152-9.836c-0.239-0.771-1.922-1.466-2.978-1.521
	C724.957,357.903,717.153,357.659,709.148,357.544L709.148,357.544z"/>
<path fill="#ED9735" d="M692.362,429.506c-0.354-3.056-0.469-6.173-1.189-9.136c-0.246-1.011-2.016-1.636-3.607-2.401
	c-3.023,2.049-5.528,4.063-8.24,6.262c-1.71,0.05-3.45,0.361-4.676-0.306c-3.739-2.036-7.281-4.449-11.125-6.789
	c-0.893-0.518-1.56-0.961-2.226-1.403c-0.598,0.049-1.192,0.099-2.09,0.208c1.961,4.223,4.219,8.384,6.605,12.765
	c2.387,1.483,4.644,2.748,7.287,4.313c10.323,5.459,10.598,5.411,18.473-2.77C691.824,429.987,692.099,429.752,692.362,429.506
	L692.362,429.506z"/>
<path fill="#B77C59" d="M607.515,132.051c2.594-0.706,3.909,0.989,5.233,2.8c0.918,1.255,1.994,2.391,3.23,3.668
	c1.901-2.673,3.57-5.433,5.381-8.418c-2.67-4.139-5.148-8.368-8.381-11.879c-3.394-3.688-7.509-6.688-11.403-10.231
	c-1.869-0.537-3.644-0.83-5.785-0.891c1.519,3.592,3.577,6.867,5.249,10.335C603.351,122.23,605.371,127.171,607.515,132.051
	L607.515,132.051z"/>
<path fill="#AFB2CC" d="M621.365,684.192c2.897-0.076,5.72-0.466,8.549-0.771c5.08-0.551,10.228-0.716,15.229-1.669
	c4.843-0.922,8.058-4.452,10.337-8.778c1.157-2.194,2.137-4.488,3.347-7.057c-0.691,0.084-1.269,0.001-1.681,0.228
	c-6.753,3.705-13.287,7.91-20.291,11.025c-4.914,2.188-10.463,2.897-16.029,4.174C620.779,682.14,621.035,683.028,621.365,684.192
	L621.365,684.192z"/>
<path fill="#C9CAD7" d="M413.202,696.652c-8.222-4.894-16.443-9.785-24.916-14.728c-0.984,1.091-1.715,2.231-2.42,3.633
	c2.266-2.026,3.693-0.409,5.578,1.48c3.83,2.009,7.066,4.136,10.546,5.705C405.592,694.368,408.596,697.982,413.202,696.652
	L413.202,696.652z"/>
<path fill="#C9CAD7" d="M383.614,687.396c0.46-0.023,0.945-0.277,1.483-0.742C384.646,686.685,384.143,686.926,383.614,687.396z"/>
<path fill="#C9CAD7" d="M380.734,689.612c0.453-0.037,0.93-0.303,1.457-0.777C381.747,688.878,381.252,689.131,380.734,689.612z"/>
<path fill="#C9CAD7" d="M377.862,691.842c0.46-0.036,0.942-0.304,1.478-0.784C378.889,691.101,378.387,691.354,377.862,691.842z"/>
<path fill="#C9CAD7" d="M374.983,694.041c0.467-0.026,0.958-0.289,1.504-0.766C376.031,693.31,375.518,693.558,374.983,694.041z"/>
<path fill="#C9CAD7" d="M372.103,696.241c0.463-0.03,0.948-0.295,1.489-0.772C373.14,695.507,372.634,695.757,372.103,696.241z"/>
<path fill="#C9CAD7" d="M369.208,698.479c0.463-0.041,0.952-0.319,1.496-0.813C370.252,697.715,369.744,697.979,369.208,698.479z"/>
<path fill="#B6B9CF" d="M413.467,696.659c-4.872,1.329-7.875-2.286-11.477-3.91c-3.48-1.568-6.716-3.696-10.329-5.584
	c3.306,4.153,6.771,8.417,10.479,12.45c5.728,6.229,12.845,6.375,20.354,4.42c1.688-0.439,3.403-0.789,4.913-1.136
	c-4.551-2.076-9.112-4.157-13.938-6.24H413.467L413.467,696.659z"/>
<path fill="#9E624E" d="M616.874,299.934c-1.708,0.153-3.058,0.834-1.31,2.04c1.543,1.064,3.702,1.202,5.592,1.749
	c0.211-0.555,0.42-1.11,0.632-1.666C620.244,301.349,618.699,300.64,616.874,299.934z"/>
<path fill="#172127" d="M679.525,424.05c2.506-2.013,5.012-4.024,7.77-6.129c-1.037-3.954-2.135-7.902-3.67-11.664
	c-2.146-5.265-4.699-10.355-6.928-15.589c-1.834-4.304-4.553-6.868-9.508-6.674c-3.315,0.131-6.664-0.629-9.98-0.505
	c-4.295,0.161-5.703,2.319-4.318,6.396c2.669,7.861,5.521,15.658,8.268,23.493c0.194,0.553,0.128,1.199,0.159,2.08
	c0.644,0.721,1.311,1.164,2.502,1.674c1.519,0.067,2.514,0.067,3.397-0.214c-0.295-0.638-0.479-0.994-0.698-1.519
	c0.25-0.454,0.532-0.74,0.803-1.047c-0.014-0.021-0.023,0.028,0.067-0.206c0.343-0.679,0.596-1.12,0.673-1.725
	c-1.119-1.162-2.065-2.162-3.012-3.162c0.235-0.334,0.471-0.667,0.704-1.001c1.094,0.259,2.348,0.255,3.252,0.825
	c2.386,1.5,4.212,1.427,6.339-0.709c1.897-1.905,3.137-0.985,3.663,2.433c0.535,1.005,0.886,1.874,1.449,2.85
	c3.019,3.735,3.002,3.798-1.689,8.364C679.047,422.858,679.287,423.454,679.525,424.05 M668.598,406.813
	c-1.909-1.158-3.817-2.316-6.046-3.668c0.978-0.67,1.155-0.856,1.368-0.92c0.213-0.063,0.506-0.083,0.686,0.021
	c3.067,1.769,6.111,4.398,9.178-0.068c0.176-0.256,1.245-0.207,1.583,0.082c0.315,0.271,0.409,1.115,0.258,1.596
	C674.889,406.188,671.463,407.813,668.598,406.813L668.598,406.813z"/>
<path fill="#1E2629" d="M692.477,429.756c-0.38,0-0.653,0.235-0.902,0.495c-7.876,8.181-8.149,8.228-18.341,2.963
	c1.386,4.577,2.967,9.286,4.69,13.938c1.141,3.07,2.367,6.122,3.807,9.055c0.517,1.052,1.726,2.399,2.688,2.464
	c5.112,0.339,10.265,0.601,15.372,0.317c3.922-0.219,4.859-2.225,3.556-6.022c-0.354-1.033-0.74-2.063-1.21-3.046
	C698.971,443.273,695.777,436.64,692.477,429.756 M700.508,453.551c0.424,2.73-1.625,3.104-3.342,3.144
	c-3.807,0.09-7.635-0.025-11.426-0.373c-1.507-0.139-2.939-1.11-4.406-1.703c-0.18-0.44-0.359-0.88-0.539-1.32
	c0.656-0.281,1.318-0.82,1.969-0.806C688.541,452.619,694.317,452.845,700.508,453.551 M679.583,443.216
	c4.208-0.276,8.416-0.636,12.628-0.7c0.393-0.006,0.813,1.845,1.397,3.267c-4.306,0-7.965,0.117-11.606-0.09
	C681.18,445.646,680.417,444.475,679.583,443.216L679.583,443.216z"/>
<path fill="#BD9D5F" d="M715.635,609.356c-1.197-1.388-2.115-2.688-3.262-3.728c-0.444-0.402-1.409-0.208-2.138-0.285
	c0.018,0.66-0.237,1.583,0.093,1.938c2.695,2.891,5.351,5.86,8.373,8.362c0.759,0.628,3.404,0.171,4.129-0.698
	c1.666-2.001,6.311-1.626,5.01-6.529C723.811,609.223,720.124,614.874,715.635,609.356L715.635,609.356z"/>
<path fill="#9E624E" d="M589.532,99.608c-0.327-5.092-2.106-7.783-5.692-8.607c-3.623-0.833-7.203,1.259-9.566,5.383
	c-1.26,2.194-2.765,4.243-4.187,6.603c-0.411,2.605-0.72,4.979-1.19,7.319c-1.058,5.256,1.171,10.574,6.263,13.644
	c0.77,0.042,1.063,0.046,1.56-0.104c2.251-4.99,4.066-9.951,6.452-14.61c1.155-2.256,3.382-3.942,5.066-6.148
	C588.63,101.755,589.082,100.682,589.532,99.608 M574.361,115.722c-2.317-1.725-1.407-3.771-0.617-5.858
	c0.542-1.429,0.914-2.924,1.394-4.378c0.741-2.243,1.052-4.854,2.422-6.589c1.008-1.275,3.575-2.162,5.16-1.823
	c1.598,0.341,2.839,2.408,4.793,4.238c-2.833,0.478-4.754,0.232-5.813,1.091c-2.756,2.235-4.009,5.493-3.263,9.061
	C579.116,114.706,578.339,116.213,574.361,115.722L574.361,115.722z"/>
<path fill="#D3CBC3" d="M576.524,124c-0.294-0.004-0.589-0.007-1.104-0.009c0.431,3.466,1.084,6.93,1.741,10.394
	c0.805,4.259,1.613,8.517,2.417,13.07c0.722,0.395,1.449,0.496,2.463,0.287c-0.226-2.66-0.681-5.026-1.271-7.358
	C579.389,134.913,577.943,129.459,576.524,124L576.524,124z"/>
<path fill="#D7D2CF" d="M589.792,99.653c-0.71,1.031-1.162,2.104-1.318,3.474c1.25,1.17,2.562,1.859,3.106,2.946
	c4.402,8.748,8.648,17.576,12.979,26.361c0.338,0.685,0.954,1.227,1.44,1.834c0.448-0.601,0.896-1.202,1.428-2.009
	c-2.057-5.086-4.077-10.028-6.388-14.824c-1.672-3.468-3.73-6.742-5.521-10.367c-1.76-2.634-3.614-5.004-5.729-7.416L589.792,99.653
	L589.792,99.653z"/>
<path fill="#B77B56" d="M605.931,134.493c-0.414-0.836-1.03-1.378-1.368-2.063c-4.33-8.785-8.578-17.613-12.979-26.36
	c-0.547-1.087-1.857-1.776-3.05-2.685c-1.979,1.909-4.204,3.595-5.359,5.851c-2.386,4.658-4.201,9.62-6.452,14.61
	c1.217,5.613,2.663,11.067,4.045,16.537c0.59,2.332,1.045,4.699,1.547,7.339c2.734,0.312,5.491,0.464,8.232,0.326
	c4.231-0.213,7.314-1.984,9.355-6.163C601.231,139.164,603.83,137.087,605.931,134.493L605.931,134.493z"/>
<path fill="#694B2A" d="M667.331,417.2c-0.995,0-1.989,0-3.283,0.008c3.319,2.273,6.861,4.687,10.602,6.722
	c1.226,0.668,2.966,0.355,4.676,0.307c-0.033-0.782-0.272-1.378-0.811-2.236C673.427,423.12,670.499,419.861,667.331,417.2
	L667.331,417.2z"/>
<path fill="#C5BDB5" d="M667.217,416.915c3.275,2.941,6.204,6.2,11.251,4.84c4.991-4.304,5.006-4.365,1.77-7.986
	c-4.341,5.93-8.638,3.345-12.94,0.609c0,0,0.009-0.048-0.071,0.193c-0.278,0.492-0.477,0.742-0.673,0.992
	C666.739,415.919,666.922,416.277,667.217,416.915L667.217,416.915z"/>
<path fill="#C5BDB5" d="M678.82,410.674c-0.34-3.283-1.578-4.204-3.477-2.298c-2.127,2.136-3.954,2.209-6.339,0.708
	c-0.905-0.569-2.158-0.566-3.252-0.824c-0.234,0.334-0.469,0.667-0.704,1.001c0.945,1,1.893,2,3.269,3.227
	C674.17,415.275,674.17,415.275,678.82,410.674L678.82,410.674z"/>
<path fill="#B2AEA9" d="M668.85,406.927c2.619,0.886,6.045-0.739,6.779-3.073c0.151-0.479,0.057-1.324-0.26-1.596
	c-0.338-0.289-1.406-0.338-1.582-0.082c-3.066,4.469-6.109,1.838-9.176,0.068c-0.181-0.104-0.476-0.083-0.687-0.021
	c-0.215,0.063-0.393,0.25-1.37,0.92C664.784,404.494,666.693,405.652,668.85,406.927L668.85,406.927z"/>
<path fill="#393F41" d="M679.008,410.806c-4.838,4.469-4.838,4.469-10.517,1.841c-0.508,0.378-0.761,0.819-1.104,1.497
	c4.212,2.971,8.508,5.556,12.632-0.479C679.893,412.68,679.545,411.81,679.008,410.806L679.008,410.806z"/>
<path fill="#393F41" d="M666.518,415.396c0.23-0.082,0.429-0.332,0.722-0.806C667.051,414.656,666.767,414.942,666.518,415.396z"/>
<path fill="#D3CBC3" d="M700.302,453.295c-5.982-0.451-11.759-0.677-17.536-0.805c-0.649-0.016-1.313,0.522-1.969,0.806
	c0.179,0.44,0.359,0.88,0.539,1.32c1.466,0.593,2.899,1.564,4.406,1.703c3.791,0.347,7.619,0.462,11.426,0.373
	C698.885,456.651,700.934,456.28,700.302,453.295L700.302,453.295z"/>
<path fill="#D3CBC3" d="M679.605,443.52c0.812,0.956,1.573,2.128,2.396,2.175c3.643,0.206,7.302,0.089,11.606,0.089
	c-0.586-1.421-1.007-3.271-1.397-3.266C687.999,442.582,683.791,442.939,679.605,443.52L679.605,443.52z"/>
<path fill="#885141" d="M574.659,115.779c3.683,0.434,4.46-1.073,3.781-4.316c-0.746-3.568,0.507-6.826,3.262-9.061
	c1.058-0.859,2.979-0.613,5.812-1.091c-1.953-1.831-3.194-3.897-4.793-4.238c-1.585-0.338-4.152,0.548-5.16,1.823
	c-1.369,1.736-1.679,4.346-2.421,6.589c-0.479,1.454-0.851,2.949-1.392,4.378C572.957,111.951,572.047,113.997,574.659,115.779
	L574.659,115.779z"/>
</svg>
